<?xml version="1.0" encoding="UTF-8"?>
<svg width="852px" height="852px" viewBox="0 0 852 852" version="1.1" xmlns="http://www.w3.org/2000/svg" xmlns:xlink="http://www.w3.org/1999/xlink">
    <!-- Generator: Sketch 57.1 (83088) - https://sketch.com -->
    <title>Network Connections</title>
    <desc>Created with Sketch.</desc>
    <defs>
        <circle id="path-1" cx="400" cy="400" r="400"></circle>
        <filter x="-5.5%" y="-4.2%" width="111.0%" height="111.0%" filterUnits="objectBoundingBox" id="filter-2">
            <feOffset dx="0" dy="10" in="SourceAlpha" result="shadowOffsetOuter1"></feOffset>
            <feGaussianBlur stdDeviation="13" in="shadowOffsetOuter1" result="shadowBlurOuter1"></feGaussianBlur>
            <feColorMatrix values="0 0 0 0 0   0 0 0 0 0   0 0 0 0 0  0 0 0 0.5 0" type="matrix" in="shadowBlurOuter1"></feColorMatrix>
        </filter>
    </defs>
    <g id="Page-1" stroke="none" stroke-width="1" fill="none" fill-rule="evenodd">
        <g id="GOLD" transform="translate(25.000000, 16.000000)">
            <g id="Network-Connections" transform="translate(1.000000, 0.000000)">
                <g id="Oval">
                    <use fill="black" fill-opacity="1" filter="url(#filter-2)" xlink:href="#path-1"></use>
                    <use fill="#E8B923" fill-rule="evenodd" xlink:href="#path-1"></use>
                </g>
                <g id="Network-Connections-Copy" transform="translate(151.000000, 152.000000)" fill="#FFFFFF" fill-rule="nonzero">
                    <path d="M472,136 C485.230469,136 496,125.230469 496,112 C496,101.078125 488.632812,91.953125 478.632812,89.046875 L479.527344,46.671875 C489.0625,43.496094 496,34.59375 496,24 C496,10.769531 485.230469,0 472,0 C459.726562,0 449.6875,9.296875 448.28125,21.199219 L348.625,43.921875 C344.449219,36.824219 336.816406,32 328,32 C322.945312,32 318.265625,33.59375 314.382812,36.273438 C294.617188,23.03125 271.832031,16 248,16 C234.472656,16 221.289062,18.367188 208.648438,22.777344 C204.328125,18.601562 198.472656,16 192,16 C182.886719,16 175.03125,21.167969 170.976562,28.671875 L111.550781,19.527344 C109.449219,8.433594 99.703125,0 88,0 C74.769531,0 64,10.769531 64,24 C64,29.039062 65.574219,33.710938 68.238281,37.574219 L30.777344,89.097656 C28.609375,88.449219 26.367188,88 24,88 C10.769531,88 0,98.769531 0,112 C0,124.542969 9.703125,134.753906 21.984375,135.800781 L50.503906,244.175781 C44.175781,248.496094 40,255.769531 40,264 C40,266.128906 40.367188,268.152344 40.886719,270.121094 C14.921875,292.960938 0,325.304688 0,360 C0,426.167969 53.832031,480 120,480 C161.304688,480 199.648438,458.574219 221.542969,423.753906 C222.214844,423.824219 222.863281,423.945312 223.550781,423.953125 L233.296875,453.175781 C227.679688,457.574219 224,464.335938 224,472 C224,485.230469 234.769531,496 248,496 C258.414062,496 267.214844,489.289062 270.527344,480 L353.480469,480 C356.792969,489.289062 365.59375,496 376.007812,496 C387.351562,496 396.832031,488.0625 399.320312,477.472656 C454.839844,466.472656 496,417.128906 496,360 C496,332.207031 486.257812,305.550781 468.617188,284.078125 C470.710938,280.519531 472,276.425781 472,272 C472,258.769531 461.230469,248 448,248 C447.257812,248 446.558594,248.152344 445.832031,248.214844 L416.726562,185.152344 C421.199219,180.792969 424,174.726562 424,168 C424,165.359375 423.472656,162.863281 422.679688,160.488281 L459.097656,132.167969 C462.832031,134.566406 467.238281,136 472,136 L472,136 Z M463.527344,46.375 L462.609375,89.921875 C459.214844,91.367188 456.296875,93.640625 453.921875,96.390625 L356.550781,58.519531 L451.777344,36.808594 C454.542969,41.160156 458.648438,44.519531 463.527344,46.375 L463.527344,46.375 Z M472,120 C467.59375,120 464,116.414062 464,112 C464,107.585938 467.59375,104 472,104 C476.40625,104 480,107.585938 480,112 C480,116.414062 476.40625,120 472,120 Z M472,16 C476.40625,16 480,19.585938 480,24 C480,28.414062 476.40625,32 472,32 C467.59375,32 464,28.414062 464,24 C464,19.585938 467.59375,16 472,16 Z M328,48 C332.40625,48 336,51.585938 336,56 C336,60.414062 332.40625,64 328,64 C323.59375,64 320,60.414062 320,56 C320,51.585938 323.59375,48 328,48 Z M305.078125,49.273438 C304.449219,51.414062 304,53.648438 304,56 C304,69.230469 314.769531,80 328,80 C330.351562,80 332.585938,79.550781 334.726562,78.921875 C346.015625,95.960938 352,115.542969 352,136 C352,161.207031 342.976562,184.335938 328,202.359375 L328,186.105469 C328,171.894531 318.457031,159.238281 304.792969,155.328125 L272,145.96875 L272,135.792969 C281.65625,128.480469 288,117.007812 288,104 L288,88 C288,65.945312 270.054688,48 248,48 C225.945312,48 208,65.945312 208,88 L208,104 C208,117.015625 214.34375,128.488281 224,135.792969 L224,145.96875 L191.207031,155.328125 C177.542969,159.230469 168,171.886719 168,186.105469 L168,202.121094 C159,191.289062 152.128906,178.601562 148.113281,164.601562 C155.191406,160.425781 160,152.800781 160,144 C160,134.03125 153.886719,125.472656 145.214844,121.855469 C148.511719,97.9375 160.128906,75.800781 177.984375,59.398438 C181.945312,62.265625 186.761719,64 192,64 C205.230469,64 216,53.230469 216,40 C216,39.046875 215.824219,38.144531 215.71875,37.222656 C226.113281,33.816406 236.921875,32 248,32 C268.464844,32 288.046875,37.984375 305.078125,49.273438 Z M248,128 C234.769531,128 224,117.230469 224,104 L224,88 C224,74.769531 234.769531,64 248,64 C261.230469,64 272,74.769531 272,88 L272,104 C272,117.230469 261.230469,128 248,128 Z M248,144 C250.734375,144 253.414062,143.71875 256,143.191406 L256,148.6875 L248,156.6875 L240,148.6875 L240,143.191406 C242.585938,143.71875 245.265625,144 248,144 Z M229.671875,160.984375 L248,179.3125 L266.328125,160.984375 L300.390625,170.71875 C307.222656,172.671875 312,178.992188 312,186.105469 L312,217.808594 C294.328125,231.65625 272.144531,240 248,240 C224.207031,240 201.855469,231.703125 184,217.710938 L184,186.105469 C184,178.992188 188.777344,172.671875 195.601562,170.71875 L229.671875,160.984375 Z M64,256 C68.40625,256 72,259.585938 72,264 C72,268.414062 68.40625,272 64,272 C59.59375,272 56,268.414062 56,264 C56,259.585938 59.59375,256 64,256 Z M66.015625,240.199219 L37.496094,131.824219 C39.839844,130.222656 41.847656,128.191406 43.496094,125.886719 L112.152344,145.503906 C112.480469,150.6875 114.449219,155.390625 117.558594,159.167969 L68.777344,240.480469 C67.886719,240.304688 66.9375,240.28125 66.015625,240.199219 Z M88,48 C88.328125,48 88.625,47.921875 88.945312,47.902344 L120.214844,126.0625 C118.839844,127.28125 117.574219,128.609375 116.503906,130.105469 L47.847656,110.488281 C47.566406,106.039062 46.152344,101.894531 43.761719,98.425781 L81.230469,46.902344 C83.390625,47.550781 85.632812,48 88,48 Z M109.023438,35.328125 L168.449219,44.472656 C168.550781,45.039062 168.734375,45.566406 168.886719,46.121094 C149.761719,63.015625 136.558594,85.519531 131.089844,110.191406 L103.785156,41.9375 C105.910156,40.0625 107.671875,37.839844 109.023438,35.328125 Z M136,136 C140.40625,136 144,139.585938 144,144 C144,148.414062 140.40625,152 136,152 C131.59375,152 128,148.414062 128,144 C128,139.585938 131.59375,136 136,136 Z M192,32 C196.40625,32 200,35.585938 200,40 C200,44.414062 196.40625,48 192,48 C187.59375,48 184,44.414062 184,40 C184,35.585938 187.59375,32 192,32 Z M88,16 C92.40625,16 96,19.585938 96,24 C96,28.414062 92.40625,32 88,32 C83.59375,32 80,28.414062 80,24 C80,19.585938 83.59375,16 88,16 Z M16,112 C16,107.585938 19.59375,104 24,104 C28.40625,104 32,107.585938 32,112 C32,116.414062 28.40625,120 24,120 C19.59375,120 16,116.414062 16,112 Z M56,441.808594 L56,410.105469 C56,402.992188 60.777344,396.671875 67.601562,394.71875 L101.671875,384.984375 L120,403.3125 L138.328125,384.984375 L172.390625,394.71875 C179.222656,396.671875 184,402.992188 184,410.105469 L184,441.886719 C165.992188,455.96875 143.542969,464 120,464 C95.855469,464 73.671875,455.65625 56,441.808594 L56,441.808594 Z M120,352 C106.769531,352 96,341.230469 96,328 L96,312 C96,298.769531 106.769531,288 120,288 C133.230469,288 144,298.769531 144,312 L144,328 C144,341.230469 133.230469,352 120,352 Z M120,368 C122.734375,368 125.414062,367.71875 128,367.191406 L128,372.6875 L120,380.6875 L112,372.6875 L112,367.191406 C114.585938,367.71875 117.265625,368 120,368 Z M200,426.289062 L200,410.097656 C200,395.886719 190.457031,383.230469 176.792969,379.320312 L144,369.96875 L144,359.792969 C153.65625,352.480469 160,341.007812 160,328 L160,312 C160,289.945312 142.054688,272 120,272 C97.945312,272 80,289.945312 80,312 L80,328 C80,341.015625 86.34375,352.488281 96,359.792969 L96,369.96875 L63.207031,379.328125 C49.542969,383.230469 40,395.886719 40,410.105469 L40,426.359375 C25.023438,408.335938 16,385.207031 16,360 C16,330.585938 28.382812,303.121094 49.992188,283.40625 C53.945312,286.265625 58.761719,288 64,288 C77.230469,288 88,277.230469 88,264 C88,263.0625 87.832031,262.175781 87.726562,261.273438 C98.175781,257.832031 108.992188,256 120,256 C177.34375,256 224,302.65625 224,360 C224,365.289062 223.398438,370.703125 222.519531,376.152344 C209.984375,376.929688 200,387.273438 200,400 C200,406.59375 202.671875,412.558594 206.992188,416.902344 C204.832031,420.191406 202.480469,423.304688 200,426.289062 L200,426.289062 Z M224,392 C228.40625,392 232,395.585938 232,400 C232,404.414062 228.40625,408 224,408 C219.59375,408 216,404.414062 216,400 C216,395.585938 219.59375,392 224,392 Z M248,480 C243.59375,480 240,476.414062 240,472 C240,467.585938 243.59375,464 248,464 C252.40625,464 256,467.585938 256,472 C256,476.414062 252.40625,480 248,480 Z M376,352 C362.769531,352 352,341.230469 352,328 L352,312 C352,298.769531 362.769531,288 376,288 C389.230469,288 400,298.769531 400,312 L400,328 C400,341.230469 389.230469,352 376,352 Z M376,368 C378.734375,368 381.414062,367.71875 384,367.191406 L384,372.6875 L376,380.6875 L368,372.6875 L368,367.191406 C370.585938,367.71875 373.265625,368 376,368 Z M357.671875,384.984375 L376,403.3125 L394.328125,384.984375 L428.390625,394.71875 C435.222656,396.671875 440,402.992188 440,410.105469 L440,441.65625 C427.777344,451.273438 413.335938,458.199219 397.503906,461.542969 C393.601562,453.558594 385.472656,448 376,448 C366.527344,448 358.398438,453.558594 354.496094,461.542969 C338.664062,458.199219 324.222656,451.273438 312,441.65625 L312,410.105469 C312,402.992188 316.777344,396.671875 323.601562,394.71875 L357.671875,384.984375 Z M376,480 C371.59375,480 368,476.414062 368,472 C368,467.585938 371.59375,464 376,464 C380.40625,464 384,467.585938 384,472 C384,476.414062 380.40625,480 376,480 Z M456,426.015625 L456,410.097656 C456,395.886719 446.457031,383.230469 432.792969,379.320312 L400,369.96875 L400,359.792969 C409.65625,352.480469 416,341.007812 416,328 L416,312 C416,289.945312 398.054688,272 376,272 C353.945312,272 336,289.945312 336,312 L336,328 C336,341.015625 342.34375,352.488281 352,359.792969 L352,369.96875 L319.207031,379.328125 C305.542969,383.230469 296,395.886719 296,410.105469 L296,426.023438 C281.007812,407.910156 272,384.816406 272,360.007812 C272,302.664062 318.65625,256.007812 376,256.007812 C392.839844,256.007812 409.433594,260.191406 424.390625,268.105469 C424.183594,269.375 424,270.664062 424,272 C424,285.230469 434.769531,296 448,296 C450.96875,296 453.785156,295.390625 456.40625,294.398438 C471.609375,312.984375 480,336.007812 480,360 C480,384.816406 470.992188,407.902344 456,426.015625 L456,426.015625 Z M456,272 C456,276.414062 452.40625,280 448,280 C443.59375,280 440,276.414062 440,272 C440,267.585938 443.59375,264 448,264 C452.40625,264 456,267.585938 456,272 Z M430.527344,253.238281 C413.617188,244.566406 394.945312,240 376,240 C309.832031,240 256,293.832031 256,360 C256,403.839844 280.246094,443.105469 316.601562,464 L270.527344,464 C267.265625,454.847656 258.664062,448.238281 248.449219,448.046875 L238.703125,418.824219 C244.320312,414.425781 248,407.664062 248,400 C248,391.992188 244.015625,384.929688 237.976562,380.566406 C239.191406,373.648438 240,366.753906 240,360 C240,293.832031 186.167969,240 120,240 C107.878906,240 95.96875,241.886719 84.441406,245.488281 L131.222656,167.519531 C131.601562,167.601562 132.007812,167.574219 132.382812,167.640625 C146.496094,219.183594 194.054688,256 248,256 C314.167969,256 368,202.167969 368,136 C368,113.59375 361.800781,92.089844 350.0625,73.160156 L448.070312,111.28125 C448.0625,111.519531 448,111.753906 448,112 C448,114.640625 448.527344,117.136719 449.320312,119.511719 L412.902344,147.832031 C409.167969,145.433594 404.761719,144 400,144 C386.769531,144 376,154.769531 376,168 C376,181.230469 386.769531,192 400,192 C400.742188,192 401.441406,191.847656 402.160156,191.785156 L430.527344,253.238281 Z M400,176 C395.59375,176 392,172.414062 392,168 C392,163.585938 395.59375,160 400,160 C404.40625,160 408,163.585938 408,168 C408,172.414062 404.40625,176 400,176 Z" id="Shape"></path>
                </g>
            </g>
        </g>
    </g>
</svg>