<?xml version="1.0" encoding="utf-8"?>
<!-- Generator: Adobe Illustrator 23.0.4, SVG Export Plug-In . SVG Version: 6.00 Build 0)  -->
<svg version="1.1" id="Layer_1" xmlns="http://www.w3.org/2000/svg" xmlns:xlink="http://www.w3.org/1999/xlink" x="0px" y="0px"
	 viewBox="0 0 1080 1080" style="enable-background:new 0 0 1080 1080;" xml:space="preserve">
<style type="text/css">
	.st0{clip-path:url(#SVGID_2_);}
	.st1{fill:#ED771A;}
	.st2{fill:#428DCB;}
	.st3{fill:#084366;}
	.st4{fill:#339937;}
	.st5{fill:#0099FF;}
</style>
<g>
	<defs>
		<rect id="SVGID_1_" x="-311" y="324" width="65" height="59"/>
	</defs>
	<clipPath id="SVGID_2_">
		<use xlink:href="#SVGID_1_"  style="overflow:visible;"/>
	</clipPath>
	<g class="st0">
		<defs>
			<rect id="SVGID_3_" x="-311" y="324" width="65" height="59"/>
		</defs>
		<clipPath id="SVGID_4_">
			<use xlink:href="#SVGID_3_"  style="overflow:visible;"/>
		</clipPath>
		<g style="clip-path:url(#SVGID_4_);">
			
				<image style="overflow:visible;" width="65" height="59" xlink:href="1E5574656E5074E2.png"  transform="matrix(1 0 0 1 -311 324)">
			</image>
		</g>
	</g>
</g>
<rect x="-192.82" y="382.62" class="st1" width="22.9" height="22.9"/>
<rect x="-192.82" y="353.56" class="st2" width="22.9" height="22.9"/>
<rect x="-192.82" y="411.24" class="st3" width="22.9" height="22.9"/>
<rect x="-192.82" y="439.43" class="st4" width="22.9" height="22.9"/>
<g>
	<g>
		<rect x="-1485.22" y="262.87" class="st2" width="79.96" height="125.48"/>
	</g>
	<g>
		<rect x="-1344.97" y="184.71" class="st2" width="80.01" height="198.22"/>
	</g>
	<g>
		<rect x="-1204.9" y="14.06" class="st2" width="80.18" height="368.86"/>
	</g>
</g>
<g>
	<g>
		<polygon class="st1" points="-961.79,-202 -1954.6,-202 -1954.6,-121.95 -1923.56,-121.95 -1923.56,381.21 -1863.53,381.21 
			-1863.53,-121.95 -1062.2,-121.95 -1062.2,474.55 -1369.77,474.55 -1369.77,534.6 -1002.13,534.6 -1002.13,-121.95 
			-961.79,-121.95 		"/>
	</g>
	<g>
		<path class="st1" d="M-1511.11,419.65c0,0-27.2-2.6-63.62-4.65c-2.27,111.36-20.55,182.65-58.36,201.55V498.44
			c8.63-1.17,15.48-8.26,15.48-17.22v-17.63c0-9.82-8.02-17.73-17.8-17.73h-38.81c-9.85,0-17.72,7.91-17.72,17.73v17.63
			c0,8.96,6.7,16.05,15.33,17.22v118.12c-37.88-18.91-56.11-90.2-58.38-201.55c-36.28,2.05-63.55,4.65-63.55,4.65
			c-40.32,0-72.99,32.74-72.99,73.07v92.51c0,40.39,113.26,58.46,219.05,58.46c106.02,0,214.37-18.07,214.37-58.46v-92.51
			C-1438.1,452.39-1470.83,419.65-1511.11,419.65z"/>
	</g>
	<g>
		<path class="st1" d="M-1523.42,261.43c0-86.93-58.94-157.62-131.39-157.62c-72.48,0-131.49,70.7-131.49,157.62
			c0,89.92,79.71,157.56,131.49,157.56C-1603.08,418.99-1523.42,351.35-1523.42,261.43z M-1757.09,261.43
			c0-12.25,1.46-24.06,4.05-35.24c3.44-5.7,7.22-11.41,10.75-16.35c10.41-14.36,18.97-28.7,40.34,0
			c20.06,26.92,95.46,41.99,149.07,43.77c0.17,2.55,0.29,5.16,0.29,7.81c0,69.58-62.75,128.35-102.21,128.35
			C-1694.32,389.78-1757.09,331.02-1757.09,261.43z"/>
	</g>
</g>
<g>
	<g>
		<rect x="-1485.22" y="1554.49" class="st2" width="79.96" height="125.48"/>
	</g>
	<g>
		<rect x="-1344.97" y="1476.32" class="st2" width="80.01" height="198.22"/>
	</g>
	<g>
		<rect x="-1204.9" y="1305.68" class="st2" width="80.18" height="368.86"/>
	</g>
</g>
<g>
	<g>
		<polygon class="st3" points="-961.79,1089.62 -1954.6,1089.62 -1954.6,1169.67 -1923.56,1169.67 -1923.56,1672.83 
			-1863.53,1672.83 -1863.53,1169.67 -1062.2,1169.67 -1062.2,1766.17 -1369.77,1766.17 -1369.77,1826.22 -1002.13,1826.22 
			-1002.13,1169.67 -961.79,1169.67 		"/>
	</g>
	<g>
		<path class="st3" d="M-1511.11,1711.27c0,0-27.2-2.6-63.62-4.65c-2.27,111.36-20.55,182.65-58.36,201.55v-118.12
			c8.63-1.17,15.48-8.26,15.48-17.22v-17.63c0-9.82-8.02-17.73-17.8-17.73h-38.81c-9.85,0-17.72,7.91-17.72,17.73v17.63
			c0,8.96,6.7,16.05,15.33,17.22v118.12c-37.88-18.91-56.11-90.2-58.38-201.55c-36.28,2.05-63.55,4.65-63.55,4.65
			c-40.32,0-72.99,32.74-72.99,73.07v92.51c0,40.39,113.26,58.46,219.05,58.46c106.02,0,214.37-18.07,214.37-58.46v-92.51
			C-1438.1,1744.01-1470.83,1711.27-1511.11,1711.27z"/>
	</g>
	<g>
		<path class="st3" d="M-1523.42,1553.05c0-86.93-58.94-157.62-131.39-157.62c-72.48,0-131.49,70.7-131.49,157.62
			c0,89.92,79.71,157.56,131.49,157.56C-1603.08,1710.61-1523.42,1642.97-1523.42,1553.05z M-1757.09,1553.05
			c0-12.25,1.46-24.06,4.05-35.24c3.44-5.7,7.22-11.41,10.75-16.35c10.41-14.36,18.97-28.7,40.34,0
			c20.06,26.92,95.46,41.99,149.07,43.77c0.17,2.55,0.29,5.16,0.29,7.81c0,69.58-62.75,128.35-102.21,128.35
			C-1694.32,1681.4-1757.09,1622.63-1757.09,1553.05z"/>
	</g>
</g>
<g>
	<g>
		<rect x="-1485.22" y="2736.18" class="st2" width="79.96" height="125.48"/>
	</g>
	<g>
		<rect x="-1344.97" y="2658.02" class="st2" width="80.01" height="198.22"/>
	</g>
	<g>
		<rect x="-1204.9" y="2487.37" class="st2" width="80.18" height="368.86"/>
	</g>
</g>
<g>
	<g>
		<polygon class="st4" points="-961.79,2271.31 -1954.6,2271.31 -1954.6,2351.36 -1923.56,2351.36 -1923.56,2854.52 
			-1863.53,2854.52 -1863.53,2351.36 -1062.2,2351.36 -1062.2,2947.86 -1369.77,2947.86 -1369.77,3007.91 -1002.13,3007.91 
			-1002.13,2351.36 -961.79,2351.36 		"/>
	</g>
	<g>
		<path class="st4" d="M-1511.11,2892.96c0,0-27.2-2.6-63.62-4.65c-2.27,111.36-20.55,182.65-58.36,201.55v-118.12
			c8.63-1.17,15.48-8.26,15.48-17.22v-17.63c0-9.82-8.02-17.73-17.8-17.73h-38.81c-9.85,0-17.72,7.91-17.72,17.73v17.63
			c0,8.96,6.7,16.05,15.33,17.22v118.12c-37.88-18.91-56.11-90.2-58.38-201.55c-36.28,2.05-63.55,4.65-63.55,4.65
			c-40.32,0-72.99,32.74-72.99,73.07v92.51c0,40.39,113.26,58.46,219.05,58.46c106.02,0,214.37-18.07,214.37-58.46v-92.51
			C-1438.1,2925.7-1470.83,2892.96-1511.11,2892.96z"/>
	</g>
	<g>
		<path class="st4" d="M-1523.42,2734.74c0-86.93-58.94-157.62-131.39-157.62c-72.48,0-131.49,70.7-131.49,157.62
			c0,89.92,79.71,157.56,131.49,157.56C-1603.08,2892.3-1523.42,2824.66-1523.42,2734.74z M-1757.09,2734.74
			c0-12.25,1.46-24.06,4.05-35.24c3.44-5.7,7.22-11.41,10.75-16.35c10.41-14.36,18.97-28.7,40.34,0
			c20.06,26.92,95.46,41.99,149.07,43.77c0.17,2.55,0.29,5.16,0.29,7.81c0,69.58-62.75,128.35-102.21,128.35
			C-1694.32,2863.09-1757.09,2804.33-1757.09,2734.74z"/>
	</g>
</g>
<path class="st5" d="M950.42,687.81c-34.64-34.23-70.44-69.62-70.44-236.7c0-169.3-124.3-310.09-286.42-335.96
	c7.47-10.85,11.46-23.72,11.44-36.89C605,42.21,575.79,13,539.75,13c-36.04,0-65.25,29.21-65.25,65.25
	c-0.02,13.17,3.97,26.04,11.44,36.9c-162.12,25.87-286.42,166.66-286.42,335.96c0,167.07-35.79,202.46-70.44,236.69
	c-98.07,96.87-26.25,238.7,90.37,238.7h189.8c0,72.07,58.43,130.5,130.5,130.5s130.5-58.43,130.5-130.5h189.8
	C976.66,926.5,1048.49,784.62,950.42,687.81z M539.75,975.44c-26.98,0-48.94-21.95-48.94-48.94h97.88
	C588.69,953.48,566.74,975.44,539.75,975.44z M860.07,828.62H219.41c-34.18,0-51.25-41.58-27.19-65.64
	c58.29-58.29,105.17-113.62,105.17-311.88c0-133.64,108.72-242.36,242.36-242.36s242.36,108.72,242.36,242.36
	c0,199.11,47.35,254.01,105.15,311.88C911.43,787.15,894.1,828.62,860.07,828.62L860.07,828.62z"/>
</svg>
