<?xml version="1.0" encoding="utf-8"?>
<!-- Generator: Adobe Illustrator 23.0.4, SVG Export Plug-In . SVG Version: 6.00 Build 0)  -->
<svg version="1.1" id="Layer_1" xmlns="http://www.w3.org/2000/svg" xmlns:xlink="http://www.w3.org/1999/xlink" x="0px" y="0px"
	 viewBox="0 0 1080 1080" style="enable-background:new 0 0 1080 1080;" xml:space="preserve">
<style type="text/css">
	.st0{clip-path:url(#SVGID_2_);}
	.st1{fill:#ED771A;}
	.st2{fill:#428DCB;}
	.st3{fill:#084366;}
	.st4{fill:#339937;}
</style>
<g>
	<defs>
		<rect id="SVGID_1_" x="-246" y="200" width="65" height="59"/>
	</defs>
	<clipPath id="SVGID_2_">
		<use xlink:href="#SVGID_1_"  style="overflow:visible;"/>
	</clipPath>
	<g class="st0">
		<defs>
			<rect id="SVGID_3_" x="-246" y="200" width="65" height="59"/>
		</defs>
		<clipPath id="SVGID_4_">
			<use xlink:href="#SVGID_3_"  style="overflow:visible;"/>
		</clipPath>
		<g style="clip-path:url(#SVGID_4_);">
			
				<image style="overflow:visible;" width="65" height="59" xlink:href="80CCD6A7715EED12.png"  transform="matrix(1 0 0 1 -246 200)">
			</image>
		</g>
	</g>
</g>
<rect x="-192.82" y="382.62" class="st1" width="22.9" height="22.9"/>
<rect x="-192.82" y="353.56" class="st2" width="22.9" height="22.9"/>
<rect x="-192.82" y="411.24" class="st3" width="22.9" height="22.9"/>
<rect x="-192.82" y="439.43" class="st4" width="22.9" height="22.9"/>
<g>
	<g>
		<path class="st1" d="M348.57,428.91c0,8.3,9.69,15.08,16.52,16.17c2.47,7.25,5.56,14.11,9.17,20.39
			c6.78,11.93,15.25,21.55,24.32,26.89c4.88,2.91,9.97,4.63,15.05,4.63c7.33,0,14.6-3.39,21.53-9.12
			c6.7-5.63,12.91-13.48,18.12-22.7c3.46-6.13,6.45-12.83,8.9-19.89c0.07,0,0.13,0,0.13,0c6.78,0,18.36-7.33,18.36-16.37
			c0-9.07-5.48-16.39-12.31-16.39l0,0c-0.05-0.87,0-1.79,0-2.74c0-41.39-27.86-62.77-54.72-62.77c-26.84,0-54.7,21.38-54.7,62.77
			c0,1.05,0.13,2.02,0.13,2.97C353.1,413.91,348.57,420.66,348.57,428.91z"/>
	</g>
	<g>
		<path class="st1" d="M602.29,428.91c0,8.3,9.67,15.08,16.52,16.17c2.44,7.25,5.58,14.11,9.12,20.39
			c6.78,11.93,15.3,21.55,24.35,26.89c4.93,2.91,9.99,4.63,15.08,4.63c7.28,0,14.6-3.39,21.53-9.12
			c6.65-5.63,12.91-13.48,18.09-22.7c3.49-6.13,6.48-12.83,8.92-19.89c0.05,0,0.1,0,0.1,0c6.78,0,18.42-7.33,18.42-16.37
			c0-9.07-5.51-16.39-12.36-16.39l0,0c-0.03-0.87,0-1.79,0-2.74c0-41.39-27.83-62.77-54.7-62.77c-26.81,0-54.69,21.38-54.69,62.77
			c0,1.05,0.1,2.02,0.1,2.97C606.82,413.91,602.29,420.66,602.29,428.91z"/>
	</g>
	<g>
		<path class="st1" d="M969.54,496.46c-7.4,15.45-38.22,77.05-47.52,88.36c0,0-38.45-74.11-45.7-89.23
			c-47.35,11.56-82.08,36.93-82.08,36.93s-32.94-24.07-78.42-36.06c-7.43,15.45-38.2,77.05-47.52,88.36c0,0-38.42-74.11-45.67-89.23
			c-47.35,11.56-82.13,36.93-82.13,36.93s-32.89-24.07-78.37-36.06c-7.43,15.45-38.23,77.05-47.52,88.36
			c0,0-38.45-74.11-45.68-89.23c-47.37,11.56-82.13,36.93-82.13,36.93s-32.92-24.07-78.39-36.06c-7.43,15.45-38.2,77.05-47.49,88.36
			c0,0-38.47-74.11-45.73-89.23c-47.32,11.56-82.13,36.93-82.13,36.93v14.6v56.07v179.36c0,12.09,9.92,21.9,22,21.9h28.81v217.22
			H237.9V804.45h26.91c12.09,0,21.98-9.82,21.98-21.9c0,12.09,9.92,21.9,21.95,21.9h28.86v217.22h154.02V804.45h26.91
			c12.08,0,21.95-9.82,21.95-21.9c0,12.09,9.94,21.9,21.95,21.9h28.83v217.22h154.05V804.45h26.89c12.16,0,22.03-9.82,22.03-21.9
			c0,12.09,9.87,21.9,21.95,21.9h28.83v217.22h154.02V804.45h26.89c12.14,0,21.98-9.82,21.98-21.9V603.19v-56.07v-14.6
			C1047.91,532.52,1015.01,508.45,969.54,496.46z"/>
	</g>
	<g>
		<path class="st1" d="M855.98,428.91c0,8.3,9.69,15.08,16.54,16.17c2.44,7.25,5.53,14.11,9.12,20.39
			c6.8,11.93,15.3,21.55,24.37,26.89c4.91,2.91,9.94,4.63,15.03,4.63c7.33,0,14.63-3.39,21.53-9.12c6.7-5.63,12.91-13.48,18.14-22.7
			c3.44-6.13,6.43-12.83,8.87-19.89c0.05,0,0.12,0,0.12,0c6.8,0,18.39-7.33,18.39-16.37c0-9.07-5.48-16.39-12.36-16.39l0,0
			c-0.05-0.87,0-1.79,0-2.74c0-41.39-27.86-62.77-54.7-62.77c-26.84,0-54.69,21.38-54.69,62.77c0,1.05,0.1,2.02,0.1,2.97
			C860.52,413.91,855.98,420.66,855.98,428.91z"/>
	</g>
</g>
<g>
	<g>
		<path class="st2" d="M111.39,445.08c2.44,7.25,5.56,14.11,9.12,20.39c6.8,11.93,15.3,21.55,24.35,26.89
			c4.93,2.91,9.94,4.63,15.08,4.63c7.3,0,14.63-3.39,21.51-9.12c6.7-5.63,12.93-13.48,18.14-22.7c3.44-6.13,6.43-12.83,8.87-19.89
			c0.05,0,0.12,0,0.12,0c6.8,0,18.42-7.33,18.42-16.37c0-9.07-5.51-16.39-12.36-16.39l0,0c-0.05-0.87,0-1.79,0-2.74
			c0-41.39-27.88-62.77-54.69-62.77c-26.86,0-54.75,21.38-54.75,62.77c0,1.05,0.15,2.02,0.15,2.97
			c-5.96,1.17-10.46,7.92-10.46,16.17C94.87,437.2,104.54,443.98,111.39,445.08z"/>
	</g>
	<g>
		<path class="st2" d="M236.41,295.05c2.52,7.25,5.58,14.13,9.15,20.41c6.8,11.93,15.3,21.58,24.35,26.89
			c4.93,2.94,9.97,4.66,15.08,4.66c7.33,0,14.63-3.39,21.51-9.15c6.7-5.66,12.93-13.48,18.11-22.7c3.47-6.1,6.48-12.86,8.9-19.91
			c0.05,0.05,0.1,0.05,0.1,0.05c6.8,0,18.41-7.37,18.41-16.4c0-9.07-5.48-16.39-12.28-16.39l-0.05,0.02
			c-0.05-0.9,0.05-1.87,0.05-2.74c0-41.39-27.91-62.82-54.75-62.82c-26.84,0-54.7,21.43-54.7,62.82c0,1.02,0.1,1.99,0.1,2.94
			c-5.96,1.19-10.46,7.92-10.46,16.17C219.91,287.19,229.61,294,236.41,295.05z"/>
	</g>
	<g>
		<path class="st2" d="M473.61,278.9c0,8.3,9.69,15.1,16.47,16.15c2.57,7.25,5.61,14.13,9.17,20.41
			c6.8,11.93,15.3,21.58,24.37,26.89c4.93,2.94,9.97,4.66,15.03,4.66c7.33,0,14.65-3.39,21.55-9.15
			c6.68-5.66,12.88-13.48,18.12-22.7c3.46-6.1,6.48-12.86,8.9-19.91c0.07,0.05,0.13,0.05,0.13,0.05c6.78,0,18.42-7.37,18.42-16.4
			c0-9.07-5.53-16.39-12.31-16.39l-0.05,0.02c-0.05-0.9,0.05-1.87,0.05-2.74c0-41.39-27.91-62.82-54.79-62.82
			c-26.81,0-54.67,21.43-54.67,62.82c0,1.02,0.13,1.99,0.13,2.94C478.12,263.92,473.61,270.65,473.61,278.9z"/>
	</g>
	<g>
		<path class="st2" d="M727.3,278.9c0,8.3,9.72,15.1,16.5,16.15c2.54,7.25,5.58,14.13,9.17,20.41c6.83,11.93,15.3,21.58,24.37,26.89
			c4.93,2.94,9.94,4.66,15.05,4.66c7.33,0,14.6-3.39,21.53-9.15c6.68-5.66,12.91-13.48,18.09-22.7c3.49-6.1,6.48-12.86,8.92-19.91
			c0.05,0.05,0.1,0.05,0.1,0.05c6.83,0,18.39-7.37,18.39-16.4c0-9.07-5.46-16.39-12.29-16.39l-0.05,0.02
			c-0.05-0.9,0.05-1.87,0.05-2.74c0-41.39-27.91-62.82-54.75-62.82c-26.86,0-54.72,21.43-54.72,62.82c0,1.02,0.1,1.99,0.1,2.94
			C731.86,263.92,727.3,270.65,727.3,278.9z"/>
	</g>
	<g>
		<path class="st2" d="M364.09,145.06c2.49,7.23,5.63,14.05,9.17,20.39c6.8,11.93,15.3,21.55,24.35,26.89
			c4.93,2.94,9.97,4.63,15.08,4.63c7.3,0,14.6-3.39,21.5-9.09c6.7-5.66,12.93-13.48,18.07-22.7c3.51-6.15,6.5-12.88,8.95-19.91
			c0.05,0,0.13,0,0.13,0c6.8,0,18.42-7.35,18.42-16.35c0-9.09-5.51-16.42-12.29-16.42c-0.1,0-0.1,0.02-0.1,0.02
			c-0.05-0.95,0.1-1.82,0.1-2.74c0-41.41-27.96-62.82-54.77-62.82c-26.91,0-54.77,21.41-54.77,62.82c0,1,0.1,1.97,0.1,2.94
			c-5.88,1.17-10.47,7.9-10.47,16.2C347.54,137.16,357.29,143.96,364.09,145.06z"/>
	</g>
	<g>
		<path class="st2" d="M617.78,145.06c2.52,7.23,5.61,14.05,9.2,20.39c6.8,11.93,15.27,21.55,24.35,26.89
			c4.91,2.94,9.94,4.63,15.05,4.63c7.33,0,14.6-3.39,21.56-9.09c6.68-5.66,12.88-13.48,18.04-22.7c3.49-6.15,6.5-12.88,8.97-19.91
			c0.05,0,0.1,0,0.1,0c6.78,0,18.39-7.35,18.39-16.35c0-9.09-5.48-16.42-12.29-16.42c-0.05,0-0.05,0.02-0.05,0.02
			c-0.05-0.95,0.05-1.82,0.05-2.74c0-41.41-27.93-62.82-54.77-62.82c-26.91,0-54.77,21.41-54.77,62.82c0,1,0.12,1.97,0.12,2.94
			c-5.88,1.17-10.46,7.9-10.46,16.2C601.27,137.16,610.98,143.96,617.78,145.06z"/>
	</g>
</g>
<g>
	<g>
		<path class="st3" d="M348.57,1713.37c0,8.3,9.69,15.08,16.52,16.17c2.47,7.25,5.56,14.11,9.17,20.39
			c6.78,11.93,15.25,21.55,24.32,26.89c4.88,2.91,9.97,4.63,15.05,4.63c7.33,0,14.6-3.39,21.53-9.12
			c6.7-5.63,12.91-13.48,18.12-22.7c3.46-6.13,6.45-12.83,8.9-19.89c0.07,0,0.13,0,0.13,0c6.78,0,18.36-7.33,18.36-16.37
			c0-9.07-5.48-16.39-12.31-16.39l0,0c-0.05-0.87,0-1.79,0-2.74c0-41.39-27.86-62.77-54.72-62.77c-26.84,0-54.7,21.38-54.7,62.77
			c0,1.05,0.13,2.02,0.13,2.97C353.1,1698.37,348.57,1705.12,348.57,1713.37z"/>
	</g>
	<g>
		<path class="st3" d="M602.29,1713.37c0,8.3,9.67,15.08,16.52,16.17c2.44,7.25,5.58,14.11,9.12,20.39
			c6.78,11.93,15.3,21.55,24.35,26.89c4.93,2.91,9.99,4.63,15.08,4.63c7.28,0,14.6-3.39,21.53-9.12
			c6.65-5.63,12.91-13.48,18.09-22.7c3.49-6.13,6.48-12.83,8.92-19.89c0.05,0,0.1,0,0.1,0c6.78,0,18.42-7.33,18.42-16.37
			c0-9.07-5.51-16.39-12.36-16.39l0,0c-0.03-0.87,0-1.79,0-2.74c0-41.39-27.83-62.77-54.7-62.77c-26.81,0-54.69,21.38-54.69,62.77
			c0,1.05,0.1,2.02,0.1,2.97C606.82,1698.37,602.29,1705.12,602.29,1713.37z"/>
	</g>
	<g>
		<path class="st3" d="M969.54,1780.92c-7.4,15.45-38.22,77.05-47.52,88.36c0,0-38.45-74.11-45.7-89.23
			c-47.35,11.56-82.08,36.93-82.08,36.93s-32.94-24.07-78.42-36.06c-7.43,15.45-38.2,77.05-47.52,88.36c0,0-38.42-74.11-45.67-89.23
			c-47.35,11.56-82.13,36.93-82.13,36.93s-32.89-24.07-78.37-36.06c-7.43,15.45-38.23,77.05-47.52,88.36
			c0,0-38.45-74.11-45.68-89.23c-47.37,11.56-82.13,36.93-82.13,36.93s-32.92-24.07-78.39-36.06c-7.43,15.45-38.2,77.05-47.49,88.36
			c0,0-38.47-74.11-45.73-89.23c-47.32,11.56-82.13,36.93-82.13,36.93v14.6v56.07v179.36c0,12.09,9.92,21.9,22,21.9h28.81v217.22
			H237.9v-217.22h26.91c12.09,0,21.98-9.82,21.98-21.9c0,12.09,9.92,21.9,21.95,21.9h28.86v217.22h154.02v-217.22h26.91
			c12.08,0,21.95-9.82,21.95-21.9c0,12.09,9.94,21.9,21.95,21.9h28.83v217.22h154.05v-217.22h26.89c12.16,0,22.03-9.82,22.03-21.9
			c0,12.09,9.87,21.9,21.95,21.9h28.83v217.22h154.02v-217.22h26.89c12.14,0,21.98-9.82,21.98-21.9v-179.36v-56.07v-14.6
			C1047.91,1816.98,1015.01,1792.91,969.54,1780.92z"/>
	</g>
	<g>
		<path class="st3" d="M855.98,1713.37c0,8.3,9.69,15.08,16.54,16.17c2.44,7.25,5.53,14.11,9.12,20.39
			c6.8,11.93,15.3,21.55,24.37,26.89c4.91,2.91,9.94,4.63,15.03,4.63c7.33,0,14.63-3.39,21.53-9.12c6.7-5.63,12.91-13.48,18.14-22.7
			c3.44-6.13,6.43-12.83,8.87-19.89c0.05,0,0.12,0,0.12,0c6.8,0,18.39-7.33,18.39-16.37c0-9.07-5.48-16.39-12.36-16.39l0,0
			c-0.05-0.87,0-1.79,0-2.74c0-41.39-27.86-62.77-54.7-62.77c-26.84,0-54.69,21.38-54.69,62.77c0,1.05,0.1,2.02,0.1,2.97
			C860.52,1698.37,855.98,1705.12,855.98,1713.37z"/>
	</g>
</g>
<g>
	<g>
		<path class="st2" d="M111.39,1729.54c2.44,7.25,5.56,14.11,9.12,20.39c6.8,11.93,15.3,21.55,24.35,26.89
			c4.93,2.91,9.94,4.63,15.08,4.63c7.3,0,14.63-3.39,21.51-9.12c6.7-5.63,12.93-13.48,18.14-22.7c3.44-6.13,6.43-12.83,8.87-19.89
			c0.05,0,0.12,0,0.12,0c6.8,0,18.42-7.33,18.42-16.37c0-9.07-5.51-16.39-12.36-16.39l0,0c-0.05-0.87,0-1.79,0-2.74
			c0-41.39-27.88-62.77-54.69-62.77c-26.86,0-54.75,21.38-54.75,62.77c0,1.05,0.15,2.02,0.15,2.97
			c-5.96,1.17-10.46,7.92-10.46,16.17C94.87,1721.67,104.54,1728.45,111.39,1729.54z"/>
	</g>
	<g>
		<path class="st2" d="M236.41,1579.51c2.52,7.25,5.58,14.13,9.15,20.41c6.8,11.93,15.3,21.58,24.35,26.89
			c4.93,2.94,9.97,4.66,15.08,4.66c7.33,0,14.63-3.39,21.51-9.15c6.7-5.66,12.93-13.48,18.11-22.7c3.47-6.1,6.48-12.86,8.9-19.91
			c0.05,0.05,0.1,0.05,0.1,0.05c6.8,0,18.41-7.37,18.41-16.4c0-9.07-5.48-16.39-12.28-16.39l-0.05,0.02
			c-0.05-0.9,0.05-1.87,0.05-2.74c0-41.39-27.91-62.82-54.75-62.82c-26.84,0-54.7,21.43-54.7,62.82c0,1.02,0.1,1.99,0.1,2.94
			c-5.96,1.19-10.46,7.92-10.46,16.17C219.91,1571.66,229.61,1578.46,236.41,1579.51z"/>
	</g>
	<g>
		<path class="st2" d="M473.61,1563.36c0,8.3,9.69,15.1,16.47,16.15c2.57,7.25,5.61,14.13,9.17,20.41
			c6.8,11.93,15.3,21.58,24.37,26.89c4.93,2.94,9.97,4.66,15.03,4.66c7.33,0,14.65-3.39,21.55-9.15
			c6.68-5.66,12.88-13.48,18.12-22.7c3.46-6.1,6.48-12.86,8.9-19.91c0.07,0.05,0.13,0.05,0.13,0.05c6.78,0,18.42-7.37,18.42-16.4
			c0-9.07-5.53-16.39-12.31-16.39l-0.05,0.02c-0.05-0.9,0.05-1.87,0.05-2.74c0-41.39-27.91-62.82-54.79-62.82
			c-26.81,0-54.67,21.43-54.67,62.82c0,1.02,0.13,1.99,0.13,2.94C478.12,1548.38,473.61,1555.11,473.61,1563.36z"/>
	</g>
	<g>
		<path class="st2" d="M727.3,1563.36c0,8.3,9.72,15.1,16.5,16.15c2.54,7.25,5.58,14.13,9.17,20.41
			c6.83,11.93,15.3,21.58,24.37,26.89c4.93,2.94,9.94,4.66,15.05,4.66c7.33,0,14.6-3.39,21.53-9.15
			c6.68-5.66,12.91-13.48,18.09-22.7c3.49-6.1,6.48-12.86,8.92-19.91c0.05,0.05,0.1,0.05,0.1,0.05c6.83,0,18.39-7.37,18.39-16.4
			c0-9.07-5.46-16.39-12.29-16.39l-0.05,0.02c-0.05-0.9,0.05-1.87,0.05-2.74c0-41.39-27.91-62.82-54.75-62.82
			c-26.86,0-54.72,21.43-54.72,62.82c0,1.02,0.1,1.99,0.1,2.94C731.86,1548.38,727.3,1555.11,727.3,1563.36z"/>
	</g>
	<g>
		<path class="st2" d="M364.09,1429.52c2.49,7.23,5.63,14.05,9.17,20.39c6.8,11.93,15.3,21.55,24.35,26.89
			c4.93,2.94,9.97,4.63,15.08,4.63c7.3,0,14.6-3.39,21.5-9.09c6.7-5.66,12.93-13.48,18.07-22.7c3.51-6.15,6.5-12.88,8.95-19.91
			c0.05,0,0.13,0,0.13,0c6.8,0,18.42-7.35,18.42-16.35c0-9.09-5.51-16.42-12.29-16.42c-0.1,0-0.1,0.02-0.1,0.02
			c-0.05-0.95,0.1-1.82,0.1-2.74c0-41.41-27.96-62.82-54.77-62.82c-26.91,0-54.77,21.41-54.77,62.82c0,1,0.1,1.97,0.1,2.94
			c-5.88,1.17-10.47,7.9-10.47,16.2C347.54,1421.62,357.29,1428.43,364.09,1429.52z"/>
	</g>
	<g>
		<path class="st2" d="M617.78,1429.52c2.52,7.23,5.61,14.05,9.2,20.39c6.8,11.93,15.27,21.55,24.35,26.89
			c4.91,2.94,9.94,4.63,15.05,4.63c7.33,0,14.6-3.39,21.56-9.09c6.68-5.66,12.88-13.48,18.04-22.7c3.49-6.15,6.5-12.88,8.97-19.91
			c0.05,0,0.1,0,0.1,0c6.78,0,18.39-7.35,18.39-16.35c0-9.09-5.48-16.42-12.29-16.42c-0.05,0-0.05,0.02-0.05,0.02
			c-0.05-0.95,0.05-1.82,0.05-2.74c0-41.41-27.93-62.82-54.77-62.82c-26.91,0-54.77,21.41-54.77,62.82c0,1,0.12,1.97,0.12,2.94
			c-5.88,1.17-10.46,7.9-10.46,16.2C601.27,1421.62,610.98,1428.43,617.78,1429.52z"/>
	</g>
</g>
<g>
	<g>
		<path class="st4" d="M348.57,2948.24c0,8.3,9.69,15.08,16.52,16.17c2.47,7.25,5.56,14.11,9.17,20.39
			c6.78,11.93,15.25,21.55,24.32,26.89c4.88,2.91,9.97,4.63,15.05,4.63c7.33,0,14.6-3.39,21.53-9.12
			c6.7-5.63,12.91-13.48,18.12-22.7c3.46-6.13,6.45-12.83,8.9-19.89c0.07,0,0.13,0,0.13,0c6.78,0,18.36-7.33,18.36-16.37
			c0-9.07-5.48-16.39-12.31-16.39l0,0c-0.05-0.87,0-1.79,0-2.74c0-41.39-27.86-62.77-54.72-62.77c-26.84,0-54.7,21.38-54.7,62.77
			c0,1.05,0.13,2.02,0.13,2.97C353.1,2933.24,348.57,2939.99,348.57,2948.24z"/>
	</g>
	<g>
		<path class="st4" d="M602.29,2948.24c0,8.3,9.67,15.08,16.52,16.17c2.44,7.25,5.58,14.11,9.12,20.39
			c6.78,11.93,15.3,21.55,24.35,26.89c4.93,2.91,9.99,4.63,15.08,4.63c7.28,0,14.6-3.39,21.53-9.12
			c6.65-5.63,12.91-13.48,18.09-22.7c3.49-6.13,6.48-12.83,8.92-19.89c0.05,0,0.1,0,0.1,0c6.78,0,18.42-7.33,18.42-16.37
			c0-9.07-5.51-16.39-12.36-16.39l0,0c-0.03-0.87,0-1.79,0-2.74c0-41.39-27.83-62.77-54.7-62.77c-26.81,0-54.69,21.38-54.69,62.77
			c0,1.05,0.1,2.02,0.1,2.97C606.82,2933.24,602.29,2939.99,602.29,2948.24z"/>
	</g>
	<g>
		<path class="st4" d="M969.54,3015.79c-7.4,15.45-38.22,77.05-47.52,88.36c0,0-38.45-74.11-45.7-89.23
			c-47.35,11.56-82.08,36.93-82.08,36.93s-32.94-24.07-78.42-36.06c-7.43,15.45-38.2,77.05-47.52,88.36c0,0-38.42-74.11-45.67-89.23
			c-47.35,11.56-82.13,36.93-82.13,36.93s-32.89-24.07-78.37-36.06c-7.43,15.45-38.23,77.05-47.52,88.36
			c0,0-38.45-74.11-45.68-89.23c-47.37,11.56-82.13,36.93-82.13,36.93s-32.92-24.07-78.39-36.06c-7.43,15.45-38.2,77.05-47.49,88.36
			c0,0-38.47-74.11-45.73-89.23c-47.32,11.56-82.13,36.93-82.13,36.93v14.6v56.06v179.36c0,12.09,9.92,21.9,22,21.9h28.81V3541
			H237.9v-217.22h26.91c12.09,0,21.98-9.82,21.98-21.9c0,12.09,9.92,21.9,21.95,21.9h28.86V3541h154.02v-217.22h26.91
			c12.08,0,21.95-9.82,21.95-21.9c0,12.09,9.94,21.9,21.95,21.9h28.83V3541h154.05v-217.22h26.89c12.16,0,22.03-9.82,22.03-21.9
			c0,12.09,9.87,21.9,21.95,21.9h28.83V3541h154.02v-217.22h26.89c12.14,0,21.98-9.82,21.98-21.9v-179.36v-56.06v-14.6
			C1047.91,3051.85,1015.01,3027.78,969.54,3015.79z"/>
	</g>
	<g>
		<path class="st4" d="M855.98,2948.24c0,8.3,9.69,15.08,16.54,16.17c2.44,7.25,5.53,14.11,9.12,20.39
			c6.8,11.93,15.3,21.55,24.37,26.89c4.91,2.91,9.94,4.63,15.03,4.63c7.33,0,14.63-3.39,21.53-9.12c6.7-5.63,12.91-13.48,18.14-22.7
			c3.44-6.13,6.43-12.83,8.87-19.89c0.05,0,0.12,0,0.12,0c6.8,0,18.39-7.33,18.39-16.37c0-9.07-5.48-16.39-12.36-16.39l0,0
			c-0.05-0.87,0-1.79,0-2.74c0-41.39-27.86-62.77-54.7-62.77c-26.84,0-54.69,21.38-54.69,62.77c0,1.05,0.1,2.02,0.1,2.97
			C860.52,2933.24,855.98,2939.99,855.98,2948.24z"/>
	</g>
</g>
<g>
	<g>
		<path class="st2" d="M111.39,2964.41c2.44,7.25,5.56,14.11,9.12,20.39c6.8,11.93,15.3,21.55,24.35,26.89
			c4.93,2.91,9.94,4.63,15.08,4.63c7.3,0,14.63-3.39,21.51-9.12c6.7-5.63,12.93-13.48,18.14-22.7c3.44-6.13,6.43-12.83,8.87-19.89
			c0.05,0,0.12,0,0.12,0c6.8,0,18.42-7.33,18.42-16.37c0-9.07-5.51-16.39-12.36-16.39l0,0c-0.05-0.87,0-1.79,0-2.74
			c0-41.39-27.88-62.77-54.69-62.77c-26.86,0-54.75,21.38-54.75,62.77c0,1.05,0.15,2.02,0.15,2.97
			c-5.96,1.17-10.46,7.92-10.46,16.17C94.87,2956.53,104.54,2963.31,111.39,2964.41z"/>
	</g>
	<g>
		<path class="st2" d="M236.41,2814.38c2.52,7.25,5.58,14.13,9.15,20.41c6.8,11.93,15.3,21.58,24.35,26.89
			c4.93,2.94,9.97,4.66,15.08,4.66c7.33,0,14.63-3.39,21.51-9.15c6.7-5.66,12.93-13.48,18.11-22.7c3.47-6.1,6.48-12.86,8.9-19.91
			c0.05,0.05,0.1,0.05,0.1,0.05c6.8,0,18.41-7.37,18.41-16.4c0-9.07-5.48-16.39-12.28-16.39l-0.05,0.02
			c-0.05-0.9,0.05-1.87,0.05-2.74c0-41.39-27.91-62.82-54.75-62.82c-26.84,0-54.7,21.43-54.7,62.82c0,1.02,0.1,1.99,0.1,2.94
			c-5.96,1.19-10.46,7.92-10.46,16.17C219.91,2806.52,229.61,2813.33,236.41,2814.38z"/>
	</g>
	<g>
		<path class="st2" d="M473.61,2798.23c0,8.3,9.69,15.1,16.47,16.15c2.57,7.25,5.61,14.13,9.17,20.41
			c6.8,11.93,15.3,21.58,24.37,26.89c4.93,2.94,9.97,4.66,15.03,4.66c7.33,0,14.65-3.39,21.55-9.15
			c6.68-5.66,12.88-13.48,18.12-22.7c3.46-6.1,6.48-12.86,8.9-19.91c0.07,0.05,0.13,0.05,0.13,0.05c6.78,0,18.42-7.37,18.42-16.4
			c0-9.07-5.53-16.39-12.31-16.39l-0.05,0.02c-0.05-0.9,0.05-1.87,0.05-2.74c0-41.39-27.91-62.82-54.79-62.82
			c-26.81,0-54.67,21.43-54.67,62.82c0,1.02,0.13,1.99,0.13,2.94C478.12,2783.25,473.61,2789.98,473.61,2798.23z"/>
	</g>
	<g>
		<path class="st2" d="M727.3,2798.23c0,8.3,9.72,15.1,16.5,16.15c2.54,7.25,5.58,14.13,9.17,20.41
			c6.83,11.93,15.3,21.58,24.37,26.89c4.93,2.94,9.94,4.66,15.05,4.66c7.33,0,14.6-3.39,21.53-9.15
			c6.68-5.66,12.91-13.48,18.09-22.7c3.49-6.1,6.48-12.86,8.92-19.91c0.05,0.05,0.1,0.05,0.1,0.05c6.83,0,18.39-7.37,18.39-16.4
			c0-9.07-5.46-16.39-12.29-16.39l-0.05,0.02c-0.05-0.9,0.05-1.87,0.05-2.74c0-41.39-27.91-62.82-54.75-62.82
			c-26.86,0-54.72,21.43-54.72,62.82c0,1.02,0.1,1.99,0.1,2.94C731.86,2783.25,727.3,2789.98,727.3,2798.23z"/>
	</g>
	<g>
		<path class="st2" d="M364.09,2664.39c2.49,7.23,5.63,14.05,9.17,20.39c6.8,11.93,15.3,21.55,24.35,26.89
			c4.93,2.94,9.97,4.63,15.08,4.63c7.3,0,14.6-3.39,21.5-9.09c6.7-5.66,12.93-13.48,18.07-22.7c3.51-6.15,6.5-12.88,8.95-19.91
			c0.05,0,0.13,0,0.13,0c6.8,0,18.42-7.35,18.42-16.35c0-9.09-5.51-16.42-12.29-16.42c-0.1,0-0.1,0.02-0.1,0.02
			c-0.05-0.95,0.1-1.82,0.1-2.74c0-41.41-27.96-62.82-54.77-62.82c-26.91,0-54.77,21.41-54.77,62.82c0,1,0.1,1.97,0.1,2.94
			c-5.88,1.17-10.47,7.9-10.47,16.2C347.54,2656.49,357.29,2663.3,364.09,2664.39z"/>
	</g>
	<g>
		<path class="st2" d="M617.78,2664.39c2.52,7.23,5.61,14.05,9.2,20.39c6.8,11.93,15.27,21.55,24.35,26.89
			c4.91,2.94,9.94,4.63,15.05,4.63c7.33,0,14.6-3.39,21.56-9.09c6.68-5.66,12.88-13.48,18.04-22.7c3.49-6.15,6.5-12.88,8.97-19.91
			c0.05,0,0.1,0,0.1,0c6.78,0,18.39-7.35,18.39-16.35c0-9.09-5.48-16.42-12.29-16.42c-0.05,0-0.05,0.02-0.05,0.02
			c-0.05-0.95,0.05-1.82,0.05-2.74c0-41.41-27.93-62.82-54.77-62.82c-26.91,0-54.77,21.41-54.77,62.82c0,1,0.12,1.97,0.12,2.94
			c-5.88,1.17-10.46,7.9-10.46,16.2C601.27,2656.49,610.98,2663.3,617.78,2664.39z"/>
	</g>
</g>
</svg>
