<?xml version="1.0" encoding="utf-8"?>
<!-- Generator: Adobe Illustrator 23.0.4, SVG Export Plug-In . SVG Version: 6.00 Build 0)  -->
<svg version="1.1" id="Layer_1" xmlns="http://www.w3.org/2000/svg" xmlns:xlink="http://www.w3.org/1999/xlink" x="0px" y="0px"
	 viewBox="0 0 1080 1080" style="enable-background:new 0 0 1080 1080;" xml:space="preserve">
<style type="text/css">
	.st0{clip-path:url(#SVGID_2_);}
	.st1{fill:#ED771A;}
	.st2{fill:#428DCB;}
	.st3{fill:#084366;}
	.st4{fill:#339937;}
</style>
<g>
	<defs>
		<rect id="SVGID_1_" x="-311" y="324" width="65" height="59"/>
	</defs>
	<clipPath id="SVGID_2_">
		<use xlink:href="#SVGID_1_"  style="overflow:visible;"/>
	</clipPath>
	<g class="st0">
		<defs>
			<rect id="SVGID_3_" x="-311" y="324" width="65" height="59"/>
		</defs>
		<clipPath id="SVGID_4_">
			<use xlink:href="#SVGID_3_"  style="overflow:visible;"/>
		</clipPath>
		<g style="clip-path:url(#SVGID_4_);">
			
				<image style="overflow:visible;" width="65" height="59" xlink:href="1EC427560339345.png"  transform="matrix(1 0 0 1 -311 324)">
			</image>
		</g>
	</g>
</g>
<rect x="-192.82" y="382.62" class="st1" width="22.9" height="22.9"/>
<rect x="-192.82" y="353.56" class="st2" width="22.9" height="22.9"/>
<rect x="-192.82" y="411.24" class="st3" width="22.9" height="22.9"/>
<rect x="-192.82" y="439.43" class="st4" width="22.9" height="22.9"/>
<g>
	<g>
		<g>
			<path class="st1" d="M458.54-2030.6h357.04c14.7,0,26.61-11.86,26.61-26.56c0-14.7-11.91-26.55-26.61-26.55H458.54
				c-14.65,0-26.55,11.86-26.55,26.55C431.99-2042.46,443.9-2030.6,458.54-2030.6z"/>
		</g>
		<g>
			<path class="st1" d="M458.54-2194.48h357.04c14.7,0,26.61-11.86,26.61-26.56c0-14.7-11.91-26.55-26.61-26.55H458.54
				c-14.65,0-26.55,11.86-26.55,26.55C431.99-2206.34,443.9-2194.48,458.54-2194.48z"/>
		</g>
	</g>
	<g>
		<path class="st1" d="M194.99-2487.53c0-18.87,0-139.23,0-139.23c0-42.44,34.52-76.93,76.94-76.93h332.42v227.04
			c0,70.65,57.52,128.14,128.24,128.14H964.3v236.11v5.67v126.34c0,42.39-34.52,76.89-76.96,76.89c0,0-411.91,0-436.76,0
			c-24.88,0-24.13,51.31,0,51.31c24.11,0,436.76,0,436.76,0c70.72,0,128.22-57.5,128.22-128.19v-126.34h0.05v-278.09L640.54-2755
			H271.93c-70.67,0-128.19,57.55-128.19,128.24c0,0,0,121.44,0,139.23C143.73-2469.69,194.99-2468.55,194.99-2487.53z
			 M667.67-2643.2l231.2,228.23H733.1c-36.07,0-65.44-29.34-65.44-65.44V-2643.2z"/>
	</g>
	<g>
		<path class="st1" d="M99.15-2010.03c-66.08,66-66.08,173.16,0,239.27c66.08,66,173.18,66,239.27,0
			c66.06-66.11,66.06-173.26,0-239.32C272.34-2076.2,165.23-2076.09,99.15-2010.03z M299.18-1848.53c10.65,10.62,10.65,27.9,0,38.47
			c-10.62,10.62-27.82,10.67-38.52,0l-41.85-41.92l-41.95,41.98c-10.19,10.21-26.38,10.47-37.08,1.08
			c-0.46-0.36-0.93-0.67-1.39-1.14c-10.65-10.57-10.65-27.79,0-38.47l41.9-41.92l-41.9-41.87c-10.23-10.26-10.52-26.4-1.16-37.13
			c0.39-0.46,0.7-0.93,1.16-1.39c10.57-10.67,27.82-10.67,38.47,0l41.95,41.87l41.85-41.82c10.62-10.72,27.9-10.72,38.52-0.05
			c10.65,10.62,10.65,27.85,0,38.52l-41.9,41.87L299.18-1848.53z"/>
	</g>
</g>
<g>
	<g>
		<path class="st2" d="M326.74-2131.88c66.06-66.06,66.06-173.16,0-239.27c-66.08-66.06-173.18-66.06-239.27,0
			c-66.05,66.11-66.05,173.16,0,239.27C153.56-2065.83,260.66-2065.77,326.74-2131.88z M111.3-2280.7c0.41-0.46,0.69-0.93,1.16-1.39
			c10.6-10.62,27.85-10.62,38.49,0l41.87,41.92l84.16-84.1c10.65-10.62,27.9-10.62,38.47,0c10.7,10.62,10.7,27.9,0,38.47
			l-41.9,41.97l-80.73,80.65l-38.47-38.47l-41.95-41.98C102.25-2253.78,101.94-2269.98,111.3-2280.7z"/>
	</g>
</g>
<g>
	<g>
		<g>
			<path class="st3" d="M458.54-530.79h357.04c14.7,0,26.61-11.86,26.61-26.56c0-14.7-11.91-26.55-26.61-26.55H458.54
				c-14.65,0-26.55,11.86-26.55,26.55C431.99-542.65,443.9-530.79,458.54-530.79z"/>
		</g>
		<g>
			<path class="st3" d="M458.54-694.67h357.04c14.7,0,26.61-11.86,26.61-26.56c0-14.7-11.91-26.55-26.61-26.55H458.54
				c-14.65,0-26.55,11.86-26.55,26.55C431.99-706.53,443.9-694.67,458.54-694.67z"/>
		</g>
	</g>
	<g>
		<path class="st3" d="M194.99-987.72c0-18.87,0-139.23,0-139.23c0-42.44,34.52-76.93,76.94-76.93h332.42v227.04
			c0,70.65,57.52,128.14,128.24,128.14H964.3v236.11v5.67v126.34c0,42.39-34.52,76.89-76.96,76.89c0,0-411.91,0-436.76,0
			c-24.88,0-24.13,51.31,0,51.31c24.11,0,436.76,0,436.76,0c70.72,0,128.22-57.5,128.22-128.19v-126.34h0.05V-885l-375.06-370.19
			H271.93c-70.67,0-128.19,57.55-128.19,128.24c0,0,0,121.44,0,139.23C143.73-969.88,194.99-968.74,194.99-987.72z M667.67-1143.39
			l231.2,228.23H733.1c-36.07,0-65.44-29.34-65.44-65.44V-1143.39z"/>
	</g>
	<g>
		<path class="st3" d="M99.15-510.22c-66.08,66-66.08,173.16,0,239.27c66.08,66,173.18,66,239.27,0
			c66.06-66.11,66.06-173.26,0-239.32C272.34-576.38,165.23-576.28,99.15-510.22z M299.18-348.72c10.65,10.62,10.65,27.9,0,38.47
			c-10.62,10.62-27.82,10.67-38.52,0l-41.85-41.92l-41.95,41.98c-10.19,10.21-26.38,10.47-37.08,1.08
			c-0.46-0.36-0.93-0.67-1.39-1.14c-10.65-10.57-10.65-27.79,0-38.47l41.9-41.92l-41.9-41.87c-10.23-10.26-10.52-26.4-1.16-37.13
			c0.39-0.46,0.7-0.93,1.16-1.39c10.57-10.67,27.82-10.67,38.47,0l41.95,41.87l41.85-41.82c10.62-10.72,27.9-10.72,38.52-0.05
			c10.65,10.62,10.65,27.85,0,38.52l-41.9,41.87L299.18-348.72z"/>
	</g>
</g>
<g>
	<g>
		<path class="st2" d="M326.74-632.07c66.06-66.06,66.06-173.16,0-239.27c-66.08-66.06-173.18-66.06-239.27,0
			c-66.05,66.11-66.05,173.16,0,239.27C153.56-566.02,260.66-565.96,326.74-632.07z M111.3-780.89c0.41-0.46,0.69-0.93,1.16-1.39
			c10.6-10.62,27.85-10.62,38.49,0l41.87,41.92l84.16-84.1c10.65-10.62,27.9-10.62,38.47,0c10.7,10.62,10.7,27.9,0,38.47
			l-41.9,41.97l-80.73,80.65l-38.47-38.47l-41.95-41.98C102.25-753.97,101.94-770.17,111.3-780.89z"/>
	</g>
</g>
<g>
	<g>
		<g>
			<path class="st4" d="M458.54,749.66h357.04c14.7,0,26.61-11.86,26.61-26.56c0-14.7-11.91-26.55-26.61-26.55H458.54
				c-14.65,0-26.55,11.86-26.55,26.55C431.99,737.8,443.9,749.66,458.54,749.66z"/>
		</g>
		<g>
			<path class="st4" d="M458.54,585.79h357.04c14.7,0,26.61-11.86,26.61-26.56c0-14.7-11.91-26.55-26.61-26.55H458.54
				c-14.65,0-26.55,11.86-26.55,26.55C431.99,573.93,443.9,585.79,458.54,585.79z"/>
		</g>
	</g>
	<g>
		<path class="st4" d="M194.99,292.74c0-18.87,0-139.23,0-139.23c0-42.44,34.52-76.93,76.94-76.93h332.42v227.04
			c0,70.65,57.52,128.14,128.24,128.14H964.3v236.11v5.67v126.34c0,42.39-34.52,76.89-76.96,76.89c0,0-411.91,0-436.76,0
			c-24.88,0-24.13,51.31,0,51.31c24.11,0,436.76,0,436.76,0c70.72,0,128.22-57.5,128.22-128.19V673.54h0.05V395.46L640.54,25.27
			H271.93c-70.67,0-128.19,57.55-128.19,128.24c0,0,0,121.44,0,139.23C143.73,310.58,194.99,311.71,194.99,292.74z M667.67,137.06
			l231.2,228.23H733.1c-36.07,0-65.44-29.34-65.44-65.44V137.06z"/>
	</g>
	<g>
		<path class="st4" d="M99.15,770.23c-66.08,66-66.08,173.16,0,239.27c66.08,66,173.18,66,239.27,0
			c66.06-66.11,66.06-173.26,0-239.32C272.34,704.07,165.23,704.17,99.15,770.23z M299.18,931.74c10.65,10.62,10.65,27.9,0,38.47
			c-10.62,10.62-27.82,10.67-38.52,0l-41.85-41.92l-41.95,41.98c-10.19,10.21-26.38,10.47-37.08,1.08
			c-0.46-0.36-0.93-0.67-1.39-1.14c-10.65-10.57-10.65-27.79,0-38.47l41.9-41.92l-41.9-41.87c-10.23-10.26-10.52-26.4-1.16-37.13
			c0.39-0.46,0.7-0.93,1.16-1.39c10.57-10.67,27.82-10.67,38.47,0l41.95,41.87l41.85-41.82c10.62-10.72,27.9-10.72,38.52-0.05
			c10.65,10.62,10.65,27.85,0,38.52l-41.9,41.87L299.18,931.74z"/>
	</g>
</g>
<g>
	<g>
		<path class="st2" d="M326.74,648.38c66.06-66.06,66.06-173.16,0-239.27c-66.08-66.06-173.18-66.06-239.27,0
			c-66.05,66.11-66.05,173.16,0,239.27C153.56,714.44,260.66,714.49,326.74,648.38z M111.3,499.56c0.41-0.46,0.69-0.93,1.16-1.39
			c10.6-10.62,27.85-10.62,38.49,0l41.87,41.92l84.16-84.1c10.65-10.62,27.9-10.62,38.47,0c10.7,10.62,10.7,27.9,0,38.47
			l-41.9,41.97l-80.73,80.65l-38.47-38.47l-41.95-41.98C102.25,526.48,101.94,510.29,111.3,499.56z"/>
	</g>
</g>
</svg>
