<?xml version="1.0" encoding="utf-8"?>
<!-- Generator: Adobe Illustrator 18.0.0, SVG Export Plug-In . SVG Version: 6.00 Build 0)  -->
<!DOCTYPE svg PUBLIC "-//W3C//DTD SVG 1.1//EN" "http://www.w3.org/Graphics/SVG/1.1/DTD/svg11.dtd">
<svg version="1.1" id="Layer_1" xmlns="http://www.w3.org/2000/svg" xmlns:xlink="http://www.w3.org/1999/xlink" x="0px" y="0px"
	 viewBox="0 0 39 48.8" enable-background="new 0 0 39 48.8" xml:space="preserve">
<g>
	<path fill="#F47C2A" d="M34.6,4.5h-7v3h7c0.6,0,1,0.4,1,1v28l-9,9h-22c-0.6,0-1-0.4-1-1v-36c0-0.6,0.4-1,1-1h7v-3h-7
		c-2.2,0-4,1.8-4,4v36c0,2.2,1.8,4,4,4h30c2.2,0,4-1.8,4-4v-36C38.6,6.3,36.8,4.5,34.6,4.5z"/>
	<path fill="#F47C2A" d="M23.6,4.5c0-2.2-1.8-4-4-4s-4,1.8-4,4h-4v3c0,1.7,1.3,3,3,3h10c1.7,0,3-1.3,3-3v-3H23.6z M19.6,6.6
		c-1.2,0-2.1-0.9-2.1-2.1s0.9-2.1,2.1-2.1c1.2,0,2.1,0.9,2.1,2.1S20.8,6.6,19.6,6.6z"/>
	<path fill="#F47C2A" d="M26.6,45.5v-7c0-1.1,0.9-2,2-2h7L26.6,45.5z"/>
	<path fill="#F47C2A" d="M31.2,16c-0.3-0.3-0.7-0.5-1.1-0.5c-0.4,0-0.7,0.1-1,0.4L17.6,26.5l-5.5-4.6c-0.3-0.3-0.6-0.4-1-0.4
		c-0.4,0-0.7,0.1-1,0.4c-0.3,0.3-0.5,0.7-0.5,1.1c0,0.4,0.1,0.7,0.4,1l6.2,6.9c0,0,0.1,0.1,0.1,0.1c0.4,0.3,0.8,0.5,1.3,0.5
		c0.5,0,1-0.2,1.4-0.6l0,0L31.2,18c0.3-0.3,0.4-0.7,0.4-1C31.6,16.6,31.5,16.2,31.2,16z"/>
</g>
<g>
	<g>
		<path fill="none" stroke="#004768" stroke-width="3" stroke-miterlimit="10" d="M99.6,2.5c-1.6,0-3,1.3-3,3v39.8c0,1.6,1.3,3,3,3
			h33.6c1.6,0,3-1.3,3-3V16.9L116.3,2.5H99.6z"/>
		<path fill="#004768" d="M116.5,4.4v9.7c0,1.8,1.5,3.3,3.3,3.3h13.2c1,0,2.2-0.5,2.7-0.8L116.4,2.8C116.5,3.8,116.5,3.8,116.5,4.4z
			"/>
	</g>
	<g>
		<path fill="#3E8DCC" d="M105.9,6.3c-1.1,0-2,0.9-2,2.2s0.9,2.5,2,2.5c1.1,0,2-1.3,2-2.5C108,7.2,107.1,6.3,105.9,6.3z"/>
		<path fill="#3E8DCC" d="M107.3,11.4l-1.5,4.2l-1.4-4.2c-2.3,0-3.6,2.2-3.6,5h10C110.8,13.7,109.6,11.4,107.3,11.4z"/>
		<polygon fill="#3E8DCC" points="105.1,12.2 105.8,14.6 106.6,12.2 105.8,11.4 		"/>
	</g>
	<g>
		<g>
			<path fill="#3E8DCC" d="M129.2,19.9h-18.8c-0.4,0-0.7,0.3-0.7,0.7v0.3c0,0.4,0.3,0.7,0.7,0.7h18.8c0.4,0,0.7-0.3,0.7-0.7v-0.3
				C129.9,20.2,129.6,19.9,129.2,19.9z"/>
			<path fill="#3E8DCC" d="M129.2,23.8h-18.8c-0.4,0-0.7,0.3-0.7,0.7v0.3c0,0.4,0.3,0.7,0.7,0.7h18.8c0.4,0,0.7-0.3,0.7-0.7v-0.3
				C129.9,24.1,129.6,23.8,129.2,23.8z"/>
			<path fill="#3E8DCC" d="M129.2,27.7l-18.8,0c-0.4,0-0.7,0.3-0.7,0.7v0.3c0,0.4,0.3,0.7,0.7,0.7h18.8c0.4,0,0.7-0.3,0.7-0.7v-0.3
				C129.9,28.1,129.6,27.7,129.2,27.7z"/>
			<path fill="#3E8DCC" d="M129.2,31.7h-18.8c-0.4,0-0.7,0.3-0.7,0.7v0.3c0,0.4,0.3,0.7,0.7,0.7h18.8c0.4,0,0.7-0.3,0.7-0.7v-0.3
				C129.9,32,129.6,31.7,129.2,31.7z"/>
		</g>
		<g>
			<path fill="#3E8DCC" d="M106.5,19.9h-4.2c-0.1,0-0.2,0.3-0.2,0.7v0.3c0,0.4,0.1,0.7,0.2,0.7h4.2c0.1,0,0.2-0.3,0.2-0.7v-0.3
				C106.7,20.2,106.6,19.9,106.5,19.9z"/>
			<path fill="#3E8DCC" d="M106.5,23.8h-4.2c-0.1,0-0.2,0.3-0.2,0.7v0.3c0,0.4,0.1,0.7,0.2,0.7h4.2c0.1,0,0.2-0.3,0.2-0.7v-0.3
				C106.7,24.1,106.6,23.8,106.5,23.8z"/>
			<path fill="#3E8DCC" d="M106.5,27.7h-4.2c-0.1,0-0.2,0.3-0.2,0.7v0.3c0,0.4,0.1,0.7,0.2,0.7h4.2c0.1,0,0.2-0.3,0.2-0.7v-0.3
				C106.7,28.1,106.6,27.7,106.5,27.7z"/>
			<path fill="#3E8DCC" d="M106.5,31.7h-4.2c-0.1,0-0.2,0.3-0.2,0.7v0.3c0,0.4,0.1,0.7,0.2,0.7h4.2c0.1,0,0.2-0.3,0.2-0.7v-0.3
				C106.7,32,106.6,31.7,106.5,31.7z"/>
		</g>
	</g>
</g>
<g>
</g>
<g>
</g>
<g>
</g>
<g>
</g>
<g>
</g>
<g>
</g>
</svg>
