<?xml version="1.0" encoding="utf-8"?>
<!-- Generator: Adobe Illustrator 18.0.0, SVG Export Plug-In . SVG Version: 6.00 Build 0)  -->
<!DOCTYPE svg PUBLIC "-//W3C//DTD SVG 1.1//EN" "http://www.w3.org/Graphics/SVG/1.1/DTD/svg11.dtd">
<svg version="1.1" id="Layer_1" xmlns="http://www.w3.org/2000/svg" xmlns:xlink="http://www.w3.org/1999/xlink" x="0px" y="0px"
	 viewBox="0 0 43.5 49.8" enable-background="new 0 0 43.5 49.8" xml:space="preserve">
<g>
	<path fill="#F47C2A" d="M-59.9,4h-7v3h7c0.6,0,1,0.4,1,1v28l-9,9h-22c-0.6,0-1-0.4-1-1V8c0-0.6,0.4-1,1-1h7V4h-7c-2.2,0-4,1.8-4,4
		v36c0,2.2,1.8,4,4,4h30c2.2,0,4-1.8,4-4V8C-55.9,5.8-57.7,4-59.9,4z"/>
	<path fill="#F47C2A" d="M-70.9,4c0-2.2-1.8-4-4-4s-4,1.8-4,4h-4v3c0,1.7,1.3,3,3,3h10c1.7,0,3-1.3,3-3V4H-70.9z M-74.9,6.1
		C-76,6.1-77,5.2-77,4s0.9-2.1,2.1-2.1c1.2,0,2.1,0.9,2.1,2.1S-73.7,6.1-74.9,6.1z"/>
	<path fill="#F47C2A" d="M-67.9,45v-7c0-1.1,0.9-2,2-2h7L-67.9,45z"/>
	<path fill="#F47C2A" d="M-63.3,15.5c-0.3-0.3-0.7-0.5-1.1-0.5c-0.4,0-0.7,0.1-1,0.4L-76.9,26l-5.5-4.6c-0.3-0.3-0.6-0.4-1-0.4
		c-0.4,0-0.7,0.1-1,0.4c-0.3,0.3-0.5,0.7-0.5,1.1c0,0.4,0.1,0.7,0.4,1l6.2,6.9c0,0,0.1,0.1,0.1,0.1c0.4,0.3,0.8,0.5,1.3,0.5
		c0.5,0,1-0.2,1.4-0.6l0,0l12.2-12.9c0.3-0.3,0.4-0.7,0.4-1C-62.9,16.1-63,15.8-63.3,15.5z"/>
</g>
<g>
	<g>
		<path fill="none" stroke="#004768" stroke-width="3" stroke-miterlimit="10" d="M5.1,2c-1.6,0-3,1.3-3,3v39.8c0,1.6,1.3,3,3,3
			h33.6c1.6,0,3-1.3,3-3V16.5L21.8,2H5.1z"/>
		<path fill="#004768" d="M22,3.9v9.7c0,1.8,1.5,3.3,3.3,3.3h13.2c1,0,2.2-0.5,2.7-0.8L21.9,2.3C22,3.3,22,3.3,22,3.9z"/>
	</g>
	<g>
		<path fill="#3E8DCC" d="M11.4,5.8c-1.1,0-2,0.9-2,2.2s0.9,2.5,2,2.5c1.1,0,2-1.3,2-2.5C13.5,6.7,12.6,5.8,11.4,5.8z"/>
		<path fill="#3E8DCC" d="M12.8,11l-1.5,4.2L9.9,11c-2.3,0-3.6,2.2-3.6,5h10C16.3,13.2,15.1,11,12.8,11z"/>
		<polygon fill="#3E8DCC" points="10.6,11.7 11.3,14.1 12.1,11.7 11.3,10.9 		"/>
	</g>
	<g>
		<g>
			<path fill="#3E8DCC" d="M34.7,19.4H15.9c-0.4,0-0.7,0.3-0.7,0.7v0.3c0,0.4,0.3,0.7,0.7,0.7h18.8c0.4,0,0.7-0.3,0.7-0.7v-0.3
				C35.4,19.7,35.1,19.4,34.7,19.4z"/>
			<path fill="#3E8DCC" d="M34.7,23.3H15.9c-0.4,0-0.7,0.3-0.7,0.7v0.3c0,0.4,0.3,0.7,0.7,0.7h18.8c0.4,0,0.7-0.3,0.7-0.7V24
				C35.4,23.7,35.1,23.3,34.7,23.3z"/>
			<path fill="#3E8DCC" d="M34.7,27.3l-18.8,0c-0.4,0-0.7,0.3-0.7,0.7v0.3c0,0.4,0.3,0.7,0.7,0.7h18.8c0.4,0,0.7-0.3,0.7-0.7V28
				C35.4,27.6,35.1,27.3,34.7,27.3z"/>
			<path fill="#3E8DCC" d="M34.7,31.2H15.9c-0.4,0-0.7,0.3-0.7,0.7v0.3c0,0.4,0.3,0.7,0.7,0.7h18.8c0.4,0,0.7-0.3,0.7-0.7v-0.3
				C35.4,31.5,35.1,31.2,34.7,31.2z"/>
		</g>
		<g>
			<path fill="#3E8DCC" d="M12,19.4H7.9c-0.1,0-0.2,0.3-0.2,0.7v0.3c0,0.4,0.1,0.7,0.2,0.7H12c0.1,0,0.2-0.3,0.2-0.7v-0.3
				C12.2,19.7,12.1,19.4,12,19.4z"/>
			<path fill="#3E8DCC" d="M12,23.3H7.9c-0.1,0-0.2,0.3-0.2,0.7v0.3c0,0.4,0.1,0.7,0.2,0.7H12c0.1,0,0.2-0.3,0.2-0.7V24
				C12.2,23.7,12.1,23.3,12,23.3z"/>
			<path fill="#3E8DCC" d="M12,27.3H7.9c-0.1,0-0.2,0.3-0.2,0.7v0.3c0,0.4,0.1,0.7,0.2,0.7H12c0.1,0,0.2-0.3,0.2-0.7V28
				C12.2,27.6,12.1,27.3,12,27.3z"/>
			<path fill="#3E8DCC" d="M12,31.2H7.9c-0.1,0-0.2,0.3-0.2,0.7v0.3c0,0.4,0.1,0.7,0.2,0.7H12c0.1,0,0.2-0.3,0.2-0.7v-0.3
				C12.2,31.5,12.1,31.2,12,31.2z"/>
		</g>
	</g>
</g>
<g>
</g>
<g>
</g>
<g>
</g>
<g>
</g>
<g>
</g>
<g>
</g>
</svg>
