<?xml version="1.0" encoding="utf-8"?>
<!-- Generator: Adobe Illustrator 23.0.4, SVG Export Plug-In . SVG Version: 6.00 Build 0)  -->
<svg version="1.1" id="Layer_1" xmlns="http://www.w3.org/2000/svg" xmlns:xlink="http://www.w3.org/1999/xlink" x="0px" y="0px"
	 viewBox="0 0 1080 1080" style="enable-background:new 0 0 1080 1080;" xml:space="preserve">
<style type="text/css">
	.st0{clip-path:url(#SVGID_2_);}
	.st1{fill:#ED771A;}
	.st2{fill:#428DCB;}
	.st3{fill:#084366;}
	.st4{fill:#339937;}
	.st5{fill:#0099FF;}
	.st6{clip-path:url(#SVGID_6_);}
	.st7{fill:none;stroke:#FFFFFF;stroke-width:52.8403;stroke-miterlimit:10;}
	.st8{fill:#FFFFFF;}
</style>
<g>
	<defs>
		<rect id="SVGID_1_" x="-311" y="324" width="65" height="59"/>
	</defs>
	<clipPath id="SVGID_2_">
		<use xlink:href="#SVGID_1_"  style="overflow:visible;"/>
	</clipPath>
	<g class="st0">
		<defs>
			<rect id="SVGID_3_" x="-311" y="324" width="65" height="59"/>
		</defs>
		<clipPath id="SVGID_4_">
			<use xlink:href="#SVGID_3_"  style="overflow:visible;"/>
		</clipPath>
		<g style="clip-path:url(#SVGID_4_);">
			
				<image style="overflow:visible;" width="65" height="59" xlink:href="532766E46A819CE.png"  transform="matrix(1 0 0 1 -311 324)">
			</image>
		</g>
	</g>
</g>
<rect x="-183.82" y="382.62" class="st1" width="22.9" height="22.9"/>
<rect x="-183.82" y="353.56" class="st2" width="22.9" height="22.9"/>
<rect x="-183.82" y="411.24" class="st3" width="22.9" height="22.9"/>
<rect x="-183.82" y="439.43" class="st4" width="22.9" height="22.9"/>
<g>
	<g>
		<rect x="-1485.22" y="262.87" class="st2" width="79.96" height="125.48"/>
	</g>
	<g>
		<rect x="-1344.97" y="184.71" class="st2" width="80.01" height="198.22"/>
	</g>
	<g>
		<rect x="-1204.9" y="14.06" class="st2" width="80.18" height="368.86"/>
	</g>
</g>
<g>
	<g>
		<polygon class="st1" points="-961.79,-202 -1954.6,-202 -1954.6,-121.95 -1923.56,-121.95 -1923.56,381.21 -1863.53,381.21 
			-1863.53,-121.95 -1062.2,-121.95 -1062.2,474.55 -1369.77,474.55 -1369.77,534.6 -1002.13,534.6 -1002.13,-121.95 
			-961.79,-121.95 		"/>
	</g>
	<g>
		<path class="st1" d="M-1511.11,419.65c0,0-27.2-2.6-63.62-4.65c-2.27,111.36-20.55,182.65-58.36,201.55V498.44
			c8.63-1.17,15.48-8.26,15.48-17.22v-17.63c0-9.82-8.02-17.73-17.8-17.73h-38.81c-9.85,0-17.72,7.91-17.72,17.73v17.63
			c0,8.96,6.7,16.05,15.33,17.22v118.12c-37.88-18.91-56.11-90.2-58.38-201.55c-36.28,2.05-63.55,4.65-63.55,4.65
			c-40.32,0-72.99,32.74-72.99,73.07v92.51c0,40.39,113.26,58.46,219.05,58.46c106.02,0,214.37-18.07,214.37-58.46v-92.51
			C-1438.1,452.39-1470.83,419.65-1511.11,419.65z"/>
	</g>
	<g>
		<path class="st1" d="M-1523.42,261.43c0-86.93-58.94-157.62-131.39-157.62c-72.48,0-131.49,70.7-131.49,157.62
			c0,89.92,79.71,157.56,131.49,157.56C-1603.08,418.99-1523.42,351.35-1523.42,261.43z M-1757.09,261.43
			c0-12.25,1.46-24.06,4.05-35.24c3.44-5.7,7.22-11.41,10.75-16.35c10.41-14.36,18.97-28.7,40.34,0
			c20.06,26.92,95.46,41.99,149.07,43.77c0.17,2.55,0.29,5.16,0.29,7.81c0,69.58-62.75,128.35-102.21,128.35
			C-1694.32,389.78-1757.09,331.02-1757.09,261.43z"/>
	</g>
</g>
<g>
	<g>
		<rect x="-1485.22" y="1554.49" class="st2" width="79.96" height="125.48"/>
	</g>
	<g>
		<rect x="-1344.97" y="1476.32" class="st2" width="80.01" height="198.22"/>
	</g>
	<g>
		<rect x="-1204.9" y="1305.68" class="st2" width="80.18" height="368.86"/>
	</g>
</g>
<g>
	<g>
		<polygon class="st3" points="-961.79,1089.62 -1954.6,1089.62 -1954.6,1169.67 -1923.56,1169.67 -1923.56,1672.83 
			-1863.53,1672.83 -1863.53,1169.67 -1062.2,1169.67 -1062.2,1766.17 -1369.77,1766.17 -1369.77,1826.22 -1002.13,1826.22 
			-1002.13,1169.67 -961.79,1169.67 		"/>
	</g>
	<g>
		<path class="st3" d="M-1511.11,1711.27c0,0-27.2-2.6-63.62-4.65c-2.27,111.36-20.55,182.65-58.36,201.55v-118.12
			c8.63-1.17,15.48-8.26,15.48-17.22v-17.63c0-9.82-8.02-17.73-17.8-17.73h-38.81c-9.85,0-17.72,7.91-17.72,17.73v17.63
			c0,8.96,6.7,16.05,15.33,17.22v118.12c-37.88-18.91-56.11-90.2-58.38-201.55c-36.28,2.05-63.55,4.65-63.55,4.65
			c-40.32,0-72.99,32.74-72.99,73.07v92.51c0,40.39,113.26,58.46,219.05,58.46c106.02,0,214.37-18.07,214.37-58.46v-92.51
			C-1438.1,1744.01-1470.83,1711.27-1511.11,1711.27z"/>
	</g>
	<g>
		<path class="st3" d="M-1523.42,1553.05c0-86.93-58.94-157.62-131.39-157.62c-72.48,0-131.49,70.7-131.49,157.62
			c0,89.92,79.71,157.56,131.49,157.56C-1603.08,1710.61-1523.42,1642.97-1523.42,1553.05z M-1757.09,1553.05
			c0-12.25,1.46-24.06,4.05-35.24c3.44-5.7,7.22-11.41,10.75-16.35c10.41-14.36,18.97-28.7,40.34,0
			c20.06,26.92,95.46,41.99,149.07,43.77c0.17,2.55,0.29,5.16,0.29,7.81c0,69.58-62.75,128.35-102.21,128.35
			C-1694.32,1681.4-1757.09,1622.63-1757.09,1553.05z"/>
	</g>
</g>
<g>
	<g>
		<rect x="-1485.22" y="2736.18" class="st2" width="79.96" height="125.48"/>
	</g>
	<g>
		<rect x="-1344.97" y="2658.02" class="st2" width="80.01" height="198.22"/>
	</g>
	<g>
		<rect x="-1204.9" y="2487.37" class="st2" width="80.18" height="368.86"/>
	</g>
</g>
<g>
	<g>
		<polygon class="st4" points="-961.79,2271.31 -1954.6,2271.31 -1954.6,2351.36 -1923.56,2351.36 -1923.56,2854.52 
			-1863.53,2854.52 -1863.53,2351.36 -1062.2,2351.36 -1062.2,2947.86 -1369.77,2947.86 -1369.77,3007.91 -1002.13,3007.91 
			-1002.13,2351.36 -961.79,2351.36 		"/>
	</g>
	<g>
		<path class="st4" d="M-1511.11,2892.96c0,0-27.2-2.6-63.62-4.65c-2.27,111.36-20.55,182.65-58.36,201.55v-118.12
			c8.63-1.17,15.48-8.26,15.48-17.22v-17.63c0-9.82-8.02-17.73-17.8-17.73h-38.81c-9.85,0-17.72,7.91-17.72,17.73v17.63
			c0,8.96,6.7,16.05,15.33,17.22v118.12c-37.88-18.91-56.11-90.2-58.38-201.55c-36.28,2.05-63.55,4.65-63.55,4.65
			c-40.32,0-72.99,32.74-72.99,73.07v92.51c0,40.39,113.26,58.46,219.05,58.46c106.02,0,214.37-18.07,214.37-58.46v-92.51
			C-1438.1,2925.7-1470.83,2892.96-1511.11,2892.96z"/>
	</g>
	<g>
		<path class="st4" d="M-1523.42,2734.74c0-86.93-58.94-157.62-131.39-157.62c-72.48,0-131.49,70.7-131.49,157.62
			c0,89.92,79.71,157.56,131.49,157.56C-1603.08,2892.3-1523.42,2824.66-1523.42,2734.74z M-1757.09,2734.74
			c0-12.25,1.46-24.06,4.05-35.24c3.44-5.7,7.22-11.41,10.75-16.35c10.41-14.36,18.97-28.7,40.34,0
			c20.06,26.92,95.46,41.99,149.07,43.77c0.17,2.55,0.29,5.16,0.29,7.81c0,69.58-62.75,128.35-102.21,128.35
			C-1694.32,2863.09-1757.09,2804.33-1757.09,2734.74z"/>
	</g>
</g>
<path class="st5" d="M-1961.58-1362.19c-34.64-34.23-70.44-69.62-70.44-236.7c0-169.3-124.3-310.09-286.42-335.96
	c7.47-10.85,11.46-23.72,11.44-36.89c0-36.04-29.21-65.25-65.25-65.25s-65.25,29.21-65.25,65.25c-0.02,13.17,3.97,26.04,11.44,36.9
	c-162.12,25.87-286.42,166.66-286.42,335.96c0,167.07-35.79,202.46-70.44,236.69c-98.07,96.87-26.25,238.7,90.37,238.7h189.8
	c0,72.07,58.43,130.5,130.5,130.5s130.5-58.43,130.5-130.5h189.8C-1935.34-1123.5-1863.51-1265.38-1961.58-1362.19z
	 M-2372.25-1074.56c-26.98,0-48.94-21.95-48.94-48.94h97.88C-2323.31-1096.52-2345.26-1074.56-2372.25-1074.56z M-2051.93-1221.38
	h-640.66c-34.18,0-51.25-41.58-27.19-65.64c58.29-58.29,105.17-113.62,105.17-311.88c0-133.64,108.72-242.36,242.36-242.36
	s242.36,108.72,242.36,242.36c0,199.11,47.35,254.01,105.15,311.88C-2000.57-1262.85-2017.9-1221.38-2051.93-1221.38
	L-2051.93-1221.38z"/>
<g>
	<defs>
		<rect id="SVGID_5_" x="2336" y="-537" width="2012.64" height="2921"/>
	</defs>
	<clipPath id="SVGID_6_">
		<use xlink:href="#SVGID_5_"  style="overflow:visible;"/>
	</clipPath>
	<g class="st6">
		<defs>
			<rect id="SVGID_7_" x="2336" y="-537" width="2012.64" height="2921"/>
		</defs>
		<clipPath id="SVGID_8_">
			<use xlink:href="#SVGID_7_"  style="overflow:visible;"/>
		</clipPath>
		<g style="clip-path:url(#SVGID_8_);">
			
				<image style="overflow:visible;" width="113" height="164" xlink:href="532766E46A819D2.png"  transform="matrix(17.811 0 0 17.811 2336 -537)">
			</image>
		</g>
	</g>
</g>
<path class="st5" d="M252.47,1268H-776.47c-9.64,0-17.53,7.89-17.53,17.53v841.46c0,9.64,7.89,17.53,17.53,17.53H252.47
	c9.64,0,17.53-7.89,17.53-17.53v-841.46C270,1275.89,262.11,1268,252.47,1268z M209.13,2082.78c0,8.52-6.97,15.48-15.48,15.48
	h-908.86c-8.52,0-15.48-6.97-15.48-15.48v-743.26c0-8.52,6.97-15.48,15.48-15.48h908.86c8.52,0,15.48,6.97,15.48,15.48V2082.78z"/>
<path class="st5" d="M-476.55,1795.2l-199.8,198.44c-7.76,7.71-7.81,20.37-0.1,28.14l15.04,15.14c7.71,7.76,20.37,7.81,28.14,0.1
	l199.8-198.44c7.76-7.71,7.81-20.37,0.1-28.14l-15.04-15.14C-456.12,1787.53-468.79,1787.49-476.55,1795.2z"/>
<path class="st5" d="M-57.63,1793.06l199.94,198.59c7.72,7.67,7.77,20.27,0.1,27.99l-14.82,14.92c-7.67,7.72-20.27,7.77-27.99,0.1
	l-199.94-198.59c-7.72-7.67-7.77-20.27-0.1-27.99l14.82-14.92C-77.95,1785.43-65.35,1785.38-57.63,1793.06z"/>
<path class="st5" d="M123.79,1407.98c-9.44-9.5-24.93-30.55-34.43-21.12l-348.77,346.41l-348.77-346.41
	c-9.5-9.44-25,11.62-34.43,21.12c-9.44,9.5-9.38,25,0.12,34.43l361.77,359.32c5.79,5.75,13.8,7.96,21.32,6.67
	c7.51,1.29,15.53-0.92,21.32-6.67l361.77-359.32C133.17,1432.97,133.22,1417.48,123.79,1407.98z"/>
<polyline class="st7" points="917.94,934.95 917.94,1016 156.56,1016 156.56,133.63 248.47,133.63 "/>
<polygon class="st7" points="1030.94,913 269.56,913 269.56,30.63 774.38,30.63 1029.23,30.23 1030.94,272.51 "/>
<rect x="330.68" y="562.79" class="st8" width="639.57" height="52.84"/>
<rect x="330.68" y="639.58" class="st8" width="639.57" height="52.84"/>
<rect x="330.68" y="408.79" class="st8" width="639.57" height="52.84"/>
<rect x="330.68" y="485.58" class="st8" width="639.57" height="52.84"/>
<rect x="330.68" y="718.4" class="st8" width="639.57" height="52.84"/>
<rect x="330.68" y="799.19" class="st8" width="639.57" height="52.84"/>
<rect x="330.68" y="95.79" class="st8" width="319.57" height="52.84"/>
<rect x="330.68" y="172.58" class="st8" width="319.57" height="52.84"/>
<rect x="330.68" y="251.4" class="st8" width="319.57" height="52.84"/>
<rect x="330.68" y="332.19" class="st8" width="639.57" height="52.84"/>
<g>
	<path class="st8" d="M925.84,140.04l0.16,13.3V260H711.56V140.09h156.56L925.84,140.04 M969.32,96l-101.23,0.09H667.56V304H970
		V153.09L969.32,96L969.32,96z"/>
</g>
</svg>
