<svg id="Layer_1" data-name="Layer 1" xmlns="http://www.w3.org/2000/svg" viewBox="0 0 933.77 1047.64"><defs><style>.cls-1{fill:#fff;fill-rule:evenodd;}</style></defs><title>Tiles-Icon-1</title><path class="cls-1" d="M654.7,378.76H814.12V242.11H654.7Zm-45.55-182.2H859.67V424.31H609.15ZM361.46,378.76H520.88V242.11H361.46Zm-45.55-182.2H566.43V424.31H315.91ZM654.7,650.8H814.12V514.15H654.7ZM609.15,468.6H859.67V696.35H609.15ZM361.46,650.8H520.88V514.15H361.46ZM315.91,468.6H566.43V696.35H315.91ZM950.77,59.91H222V902.58H950.77ZM176.43,902.58V173.78H108.1v842.67H836.9V948.13H222A45.69,45.69,0,0,1,176.43,902.58Zm774.34,45.55H882.45v68.32A45.69,45.69,0,0,1,836.9,1062H108.1a45.68,45.68,0,0,1-45.54-45.55V173.78a45.68,45.68,0,0,1,45.54-45.55h68.33V59.91A45.69,45.69,0,0,1,222,14.36H950.77a45.69,45.69,0,0,1,45.55,45.55V902.58A45.69,45.69,0,0,1,950.77,948.13Z" transform="translate(-62.56 -14.36)"/></svg>