<?xml version="1.0" encoding="utf-8"?>
<!-- Generator: Adobe Illustrator 23.0.4, SVG Export Plug-In . SVG Version: 6.00 Build 0)  -->
<svg version="1.1" id="Layer_1" xmlns="http://www.w3.org/2000/svg" xmlns:xlink="http://www.w3.org/1999/xlink" x="0px" y="0px"
	 viewBox="0 0 1080 1080" style="enable-background:new 0 0 1080 1080;" xml:space="preserve">
<style type="text/css">
	.st0{clip-path:url(#SVGID_2_);}
	.st1{fill:#ED771A;}
	.st2{fill:#428DCB;}
	.st3{fill:#084366;}
	.st4{fill:#339937;}
</style>
<g>
	<defs>
		<rect id="SVGID_1_" x="-311" y="324" width="65" height="59"/>
	</defs>
	<clipPath id="SVGID_2_">
		<use xlink:href="#SVGID_1_"  style="overflow:visible;"/>
	</clipPath>
	<g class="st0">
		<defs>
			<rect id="SVGID_3_" x="-311" y="324" width="65" height="59"/>
		</defs>
		<clipPath id="SVGID_4_">
			<use xlink:href="#SVGID_3_"  style="overflow:visible;"/>
		</clipPath>
		<g style="clip-path:url(#SVGID_4_);">
			
				<image style="overflow:visible;" width="65" height="59" xlink:href="10C44444FAF90873.png"  transform="matrix(1 0 0 1 -311 324)">
			</image>
		</g>
	</g>
</g>
<rect x="-192.82" y="382.62" class="st1" width="22.9" height="22.9"/>
<rect x="-192.82" y="353.56" class="st2" width="22.9" height="22.9"/>
<rect x="-192.82" y="411.24" class="st3" width="22.9" height="22.9"/>
<rect x="-192.82" y="439.43" class="st4" width="22.9" height="22.9"/>
<g>
	<path class="st2" d="M809.64,790.22l-66.33-288.39H543.39H343.47l-66.26,288.39c0,0,162.45-6.65,162.45,129.27h103.73h103.78
		C647.17,783.57,809.64,790.22,809.64,790.22z"/>
</g>
<g>
	<g>
		<path class="st1" d="M694.95,450.14V348.31c0,0-16.21-34.68-81.73-51.87c-10.74,22.22-33.18,67.29-46.61,83.6c0,0,0-6.01,0-15.91
			c0-9.8-7.61-21.92-7.61-28.53c0-6.55,8.18-8.18,8.18-16.35c0-8.28-4.56-8.28-17.86-8.28c-1.16,0-4.83,0-5.99,0
			c-13.28,0-17.86,0-17.86,8.28c0,8.18,8.2,9.8,8.2,16.35c0,6.6-7.66,18.72-7.66,28.53c0,9.9,0,15.91,0,15.91
			c-13.65-16.55-36.65-63.16-47.1-84.93c-68.28,16.7-87.07,53.21-87.07,53.21v101.83h151.49H694.95z"/>
	</g>
	<g>
		<path class="st1" d="M473.41,222.3c13.89,41.09,42.27,74.83,69.93,74.83c27.66,0,55.91-33.65,69.93-74.49h0.2
			c9.73,0,18.6-47.25,8.74-47.25l-0.1,0.05c0-1.33,0.1-2.66,0.1-3.99c0-59.61-40.13-90.5-78.87-90.5c-38.7,0-78.82,30.89-78.82,90.5
			c0,1.48,0.1,2.86,0.1,4.34C456.12,177.47,463.51,220.72,473.41,222.3z"/>
	</g>
	<g>
		<path class="st1" d="M118.04,544.88c33.23,13.25,106.09-2.02,106.09-55.72s-6.6-156.46-91.11-156.46
			c-84.59,0-91.21,81.88-91.21,100.74C41.81,488.52,84.91,531.68,118.04,544.88z"/>
	</g>
	<g>
		<path class="st1" d="M209.25,839.92c0,0,31.43-79.51,31.43-152.47S147.9,584.63,108.06,584.63c-39.71,0-66.26,39.86-66.26,89.52
			c0,49.76,0,245.34,0,245.34h334.8C376.61,859.78,343.47,839.92,209.25,839.92z"/>
	</g>
	<g>
		<path class="st1" d="M968.74,544.19c33.11-13.3,76.26-56.36,76.26-111.43c0-18.82-6.63-100.7-91.21-100.7
			c-84.51,0-91.14,102.77-91.14,156.41C862.65,542.22,935.58,557.44,968.74,544.19z"/>
	</g>
	<g>
		<path class="st1" d="M978.72,584c-39.76,0-132.64,29.8-132.64,102.71c0,72.96,31.53,152.57,31.53,152.57
			c-134.29,0-167.45,19.85-167.45,79.56H1045c0,0,0-195.63,0-245.39C1045,623.75,1018.42,584,978.72,584z"/>
	</g>
</g>
<g>
	<path class="st2" d="M809.64,2100.9l-66.33-288.39H543.39H343.47l-66.26,288.39c0,0,162.45-6.65,162.45,129.27h103.73h103.78
		C647.17,2094.25,809.64,2100.9,809.64,2100.9z"/>
</g>
<g>
	<g>
		<path class="st3" d="M694.95,1760.83V1659c0,0-16.21-34.68-81.73-51.87c-10.74,22.22-33.18,67.29-46.61,83.6c0,0,0-6.01,0-15.91
			c0-9.8-7.61-21.92-7.61-28.53c0-6.55,8.18-8.18,8.18-16.35c0-8.28-4.56-8.28-17.86-8.28c-1.16,0-4.83,0-5.99,0
			c-13.28,0-17.86,0-17.86,8.28c0,8.18,8.2,9.8,8.2,16.35c0,6.6-7.66,18.72-7.66,28.53c0,9.9,0,15.91,0,15.91
			c-13.65-16.55-36.65-63.16-47.1-84.93c-68.28,16.7-87.07,53.21-87.07,53.21v101.83h151.49H694.95z"/>
	</g>
	<g>
		<path class="st3" d="M473.41,1532.98c13.89,41.09,42.27,74.83,69.93,74.83c27.66,0,55.91-33.65,69.93-74.49h0.2
			c9.73,0,18.6-47.25,8.74-47.25l-0.1,0.05c0-1.33,0.1-2.66,0.1-3.99c0-59.61-40.13-90.5-78.87-90.5c-38.7,0-78.82,30.89-78.82,90.5
			c0,1.48,0.1,2.86,0.1,4.34C456.12,1488.15,463.51,1531.41,473.41,1532.98z"/>
	</g>
	<g>
		<path class="st3" d="M118.04,1855.57c33.23,13.25,106.09-2.02,106.09-55.72c0-53.7-6.6-156.46-91.11-156.46
			c-84.59,0-91.21,81.88-91.21,100.74C41.81,1799.21,84.91,1842.36,118.04,1855.57z"/>
	</g>
	<g>
		<path class="st3" d="M209.25,2150.61c0,0,31.43-79.51,31.43-152.47c0-72.96-92.79-102.82-132.62-102.82
			c-39.71,0-66.26,39.86-66.26,89.52c0,49.76,0,245.34,0,245.34h334.8C376.61,2170.47,343.47,2150.61,209.25,2150.61z"/>
	</g>
	<g>
		<path class="st3" d="M968.74,1854.88c33.11-13.3,76.26-56.36,76.26-111.43c0-18.82-6.63-100.7-91.21-100.7
			c-84.51,0-91.14,102.77-91.14,156.41C862.65,1852.91,935.58,1868.13,968.74,1854.88z"/>
	</g>
	<g>
		<path class="st3" d="M978.72,1894.68c-39.76,0-132.64,29.8-132.64,102.71c0,72.96,31.53,152.57,31.53,152.57
			c-134.29,0-167.45,19.85-167.45,79.56H1045c0,0,0-195.63,0-245.39C1045,1934.44,1018.42,1894.68,978.72,1894.68z"/>
	</g>
</g>
<g>
	<path class="st2" d="M809.64,3322.73l-66.33-288.39H543.39H343.47l-66.26,288.39c0,0,162.45-6.65,162.45,129.27h103.73h103.78
		C647.17,3316.08,809.64,3322.73,809.64,3322.73z"/>
</g>
<g>
	<g>
		<path class="st4" d="M694.95,2982.66v-101.83c0,0-16.21-34.68-81.73-51.87c-10.74,22.22-33.18,67.29-46.61,83.6
			c0,0,0-6.01,0-15.91c0-9.8-7.61-21.92-7.61-28.53c0-6.55,8.18-8.18,8.18-16.35c0-8.28-4.56-8.28-17.86-8.28c-1.16,0-4.83,0-5.99,0
			c-13.28,0-17.86,0-17.86,8.28c0,8.18,8.2,9.8,8.2,16.35c0,6.6-7.66,18.72-7.66,28.53c0,9.9,0,15.91,0,15.91
			c-13.65-16.55-36.65-63.16-47.1-84.93c-68.28,16.7-87.07,53.21-87.07,53.21v101.83h151.49H694.95z"/>
	</g>
	<g>
		<path class="st4" d="M473.41,2754.81c13.89,41.09,42.27,74.83,69.93,74.83c27.66,0,55.91-33.65,69.93-74.49h0.2
			c9.73,0,18.6-47.25,8.74-47.25l-0.1,0.05c0-1.33,0.1-2.66,0.1-3.99c0-59.61-40.13-90.5-78.87-90.5c-38.7,0-78.82,30.89-78.82,90.5
			c0,1.48,0.1,2.86,0.1,4.34C456.12,2709.98,463.51,2753.23,473.41,2754.81z"/>
	</g>
	<g>
		<path class="st4" d="M118.04,3077.4c33.23,13.25,106.09-2.02,106.09-55.72s-6.6-156.46-91.11-156.46
			c-84.59,0-91.21,81.88-91.21,100.74C41.81,3021.04,84.91,3064.19,118.04,3077.4z"/>
	</g>
	<g>
		<path class="st4" d="M209.25,3372.44c0,0,31.43-79.51,31.43-152.47s-92.79-102.82-132.62-102.82c-39.71,0-66.26,39.86-66.26,89.52
			c0,49.76,0,245.34,0,245.34h334.8C376.61,3392.29,343.47,3372.44,209.25,3372.44z"/>
	</g>
	<g>
		<path class="st4" d="M968.74,3076.7c33.11-13.3,76.26-56.36,76.26-111.43c0-18.82-6.63-100.7-91.21-100.7
			c-84.51,0-91.14,102.77-91.14,156.41C862.65,3074.73,935.58,3089.96,968.74,3076.7z"/>
	</g>
	<g>
		<path class="st4" d="M978.72,3116.51c-39.76,0-132.64,29.8-132.64,102.71c0,72.96,31.53,152.57,31.53,152.57
			c-134.29,0-167.45,19.85-167.45,79.56H1045c0,0,0-195.63,0-245.39C1045,3156.27,1018.42,3116.51,978.72,3116.51z"/>
	</g>
</g>
</svg>
