<?xml version="1.0" encoding="utf-8"?>
<!-- Generator: Adobe Illustrator 23.0.4, SVG Export Plug-In . SVG Version: 6.00 Build 0)  -->
<svg version="1.1" id="Layer_1" xmlns="http://www.w3.org/2000/svg" xmlns:xlink="http://www.w3.org/1999/xlink" x="0px" y="0px"
	 viewBox="0 0 1080 1080" style="enable-background:new 0 0 1080 1080;" xml:space="preserve">
<style type="text/css">
	.st0{clip-path:url(#SVGID_2_);}
	.st1{fill:#ED771A;}
	.st2{fill:#428DCB;}
	.st3{fill:#084366;}
	.st4{fill:#339937;}
</style>
<g>
	<defs>
		<rect id="SVGID_1_" x="-311" y="324" width="65" height="59"/>
	</defs>
	<clipPath id="SVGID_2_">
		<use xlink:href="#SVGID_1_"  style="overflow:visible;"/>
	</clipPath>
	<g class="st0">
		<defs>
			<rect id="SVGID_3_" x="-311" y="324" width="65" height="59"/>
		</defs>
		<clipPath id="SVGID_4_">
			<use xlink:href="#SVGID_3_"  style="overflow:visible;"/>
		</clipPath>
		<g style="clip-path:url(#SVGID_4_);">
			
				<image style="overflow:visible;" width="65" height="59" xlink:href="2648B6A2291DCF0A.png"  transform="matrix(1 0 0 1 -311 324)">
			</image>
		</g>
	</g>
</g>
<rect x="-192.82" y="382.62" class="st1" width="22.9" height="22.9"/>
<rect x="-192.82" y="353.56" class="st2" width="22.9" height="22.9"/>
<rect x="-192.82" y="411.24" class="st3" width="22.9" height="22.9"/>
<rect x="-192.82" y="439.43" class="st4" width="22.9" height="22.9"/>
<g>
	<g>
		<rect x="512.78" y="-1867.13" class="st2" width="79.96" height="125.48"/>
	</g>
	<g>
		<rect x="653.03" y="-1945.29" class="st2" width="80.01" height="198.22"/>
	</g>
	<g>
		<rect x="793.1" y="-2115.94" class="st2" width="80.18" height="368.86"/>
	</g>
</g>
<g>
	<g>
		<polygon class="st1" points="1036.21,-2332 43.4,-2332 43.4,-2251.95 74.44,-2251.95 74.44,-1748.79 134.47,-1748.79 
			134.47,-2251.95 935.8,-2251.95 935.8,-1655.45 628.23,-1655.45 628.23,-1595.4 995.87,-1595.4 995.87,-2251.95 1036.21,-2251.95 
					"/>
	</g>
	<g>
		<path class="st1" d="M486.89-1710.35c0,0-27.2-2.6-63.62-4.65c-2.27,111.36-20.55,182.65-58.36,201.55v-118.12
			c8.63-1.17,15.48-8.26,15.48-17.22v-17.63c0-9.82-8.02-17.73-17.8-17.73h-38.81c-9.85,0-17.72,7.91-17.72,17.73v17.63
			c0,8.96,6.7,16.05,15.33,17.22v118.12c-37.88-18.91-56.11-90.2-58.38-201.55c-36.28,2.05-63.55,4.65-63.55,4.65
			c-40.32,0-72.99,32.74-72.99,73.07v92.51c0,40.39,113.26,58.46,219.05,58.46c106.02,0,214.37-18.07,214.37-58.46v-92.51
			C559.9-1677.61,527.17-1710.35,486.89-1710.35z"/>
	</g>
	<g>
		<path class="st1" d="M474.58-1868.57c0-86.93-58.94-157.62-131.39-157.62c-72.48,0-131.49,70.7-131.49,157.62
			c0,89.92,79.71,157.56,131.49,157.56C394.92-1711.01,474.58-1778.65,474.58-1868.57z M240.91-1868.57
			c0-12.25,1.46-24.06,4.05-35.24c3.44-5.7,7.22-11.41,10.75-16.35c10.41-14.36,18.97-28.7,40.34,0
			c20.06,26.92,95.46,41.99,149.07,43.77c0.17,2.55,0.29,5.16,0.29,7.81c0,69.58-62.75,128.35-102.21,128.35
			C303.68-1740.22,240.91-1798.98,240.91-1868.57z"/>
	</g>
</g>
<g>
	<g>
		<rect x="512.78" y="-575.51" class="st2" width="79.96" height="125.48"/>
	</g>
	<g>
		<rect x="653.03" y="-653.68" class="st2" width="80.01" height="198.22"/>
	</g>
	<g>
		<rect x="793.1" y="-824.32" class="st2" width="80.18" height="368.86"/>
	</g>
</g>
<g>
	<g>
		<polygon class="st3" points="1036.21,-1040.38 43.4,-1040.38 43.4,-960.33 74.44,-960.33 74.44,-457.17 134.47,-457.17 
			134.47,-960.33 935.8,-960.33 935.8,-363.83 628.23,-363.83 628.23,-303.78 995.87,-303.78 995.87,-960.33 1036.21,-960.33 		"/>
	</g>
	<g>
		<path class="st3" d="M486.89-418.73c0,0-27.2-2.6-63.62-4.65c-2.27,111.36-20.55,182.65-58.36,201.55v-118.12
			c8.63-1.17,15.48-8.26,15.48-17.22v-17.63c0-9.82-8.02-17.73-17.8-17.73h-38.81c-9.85,0-17.72,7.91-17.72,17.73v17.63
			c0,8.96,6.7,16.05,15.33,17.22v118.12c-37.88-18.91-56.11-90.2-58.38-201.55c-36.28,2.05-63.55,4.65-63.55,4.65
			c-40.32,0-72.99,32.74-72.99,73.07v92.51c0,40.39,113.26,58.46,219.05,58.46c106.02,0,214.37-18.07,214.37-58.46v-92.51
			C559.9-385.99,527.17-418.73,486.89-418.73z"/>
	</g>
	<g>
		<path class="st3" d="M474.58-576.95c0-86.93-58.94-157.62-131.39-157.62c-72.48,0-131.49,70.7-131.49,157.62
			c0,89.92,79.71,157.56,131.49,157.56C394.92-419.39,474.58-487.03,474.58-576.95z M240.91-576.95c0-12.25,1.46-24.06,4.05-35.24
			c3.44-5.7,7.22-11.41,10.75-16.35c10.41-14.36,18.97-28.7,40.34,0c20.06,26.92,95.46,41.99,149.07,43.77
			c0.17,2.55,0.29,5.16,0.29,7.81c0,69.58-62.75,128.35-102.21,128.35C303.68-448.6,240.91-507.37,240.91-576.95z"/>
	</g>
</g>
<g>
	<g>
		<rect x="512.78" y="606.18" class="st2" width="79.96" height="125.48"/>
	</g>
	<g>
		<rect x="653.03" y="528.02" class="st2" width="80.01" height="198.22"/>
	</g>
	<g>
		<rect x="793.1" y="357.37" class="st2" width="80.18" height="368.86"/>
	</g>
</g>
<g>
	<g>
		<polygon class="st4" points="1036.21,141.31 43.4,141.31 43.4,221.36 74.44,221.36 74.44,724.52 134.47,724.52 134.47,221.36 
			935.8,221.36 935.8,817.86 628.23,817.86 628.23,877.91 995.87,877.91 995.87,221.36 1036.21,221.36 		"/>
	</g>
	<g>
		<path class="st4" d="M486.89,762.96c0,0-27.2-2.6-63.62-4.65c-2.27,111.36-20.55,182.65-58.36,201.55V841.75
			c8.63-1.17,15.48-8.26,15.48-17.22V806.9c0-9.82-8.02-17.73-17.8-17.73h-38.81c-9.85,0-17.72,7.91-17.72,17.73v17.63
			c0,8.96,6.7,16.05,15.33,17.22v118.12c-37.88-18.91-56.11-90.2-58.38-201.55c-36.28,2.05-63.55,4.65-63.55,4.65
			c-40.32,0-72.99,32.74-72.99,73.07v92.51c0,40.39,113.26,58.46,219.05,58.46c106.02,0,214.37-18.07,214.37-58.46v-92.51
			C559.9,795.7,527.17,762.96,486.89,762.96z"/>
	</g>
	<g>
		<path class="st4" d="M474.58,604.74c0-86.93-58.94-157.62-131.39-157.62c-72.48,0-131.49,70.7-131.49,157.62
			c0,89.92,79.71,157.56,131.49,157.56C394.92,762.3,474.58,694.66,474.58,604.74z M240.91,604.74c0-12.25,1.46-24.06,4.05-35.24
			c3.44-5.7,7.22-11.41,10.75-16.35c10.41-14.36,18.97-28.7,40.34,0c20.06,26.92,95.46,41.99,149.07,43.77
			c0.17,2.55,0.29,5.16,0.29,7.81c0,69.58-62.75,128.35-102.21,128.35C303.68,733.09,240.91,674.33,240.91,604.74z"/>
	</g>
</g>
</svg>
