<?xml version="1.0" encoding="utf-8"?>
<!-- Generator: Adobe Illustrator 23.0.4, SVG Export Plug-In . SVG Version: 6.00 Build 0)  -->
<svg version="1.1" id="Layer_1" xmlns="http://www.w3.org/2000/svg" xmlns:xlink="http://www.w3.org/1999/xlink" x="0px" y="0px"
	 viewBox="0 0 1080 1080" style="enable-background:new 0 0 1080 1080;" xml:space="preserve">
<style type="text/css">
	.st0{clip-path:url(#SVGID_2_);}
	.st1{fill:#ED771A;}
	.st2{fill:#428DCB;}
	.st3{fill:#084366;}
	.st4{fill:#339937;}
</style>
<g>
	<defs>
		<rect id="SVGID_1_" x="-311" y="324" width="65" height="59"/>
	</defs>
	<clipPath id="SVGID_2_">
		<use xlink:href="#SVGID_1_"  style="overflow:visible;"/>
	</clipPath>
	<g class="st0">
		<defs>
			<rect id="SVGID_3_" x="-311" y="324" width="65" height="59"/>
		</defs>
		<clipPath id="SVGID_4_">
			<use xlink:href="#SVGID_3_"  style="overflow:visible;"/>
		</clipPath>
		<g style="clip-path:url(#SVGID_4_);">
			
				<image style="overflow:visible;" width="65" height="59" xlink:href="BF8C22C930DAB6FD.png"  transform="matrix(1 0 0 1 -311 324)">
			</image>
		</g>
	</g>
</g>
<rect x="-192.82" y="382.62" class="st1" width="22.9" height="22.9"/>
<rect x="-192.82" y="353.56" class="st2" width="22.9" height="22.9"/>
<rect x="-192.82" y="411.24" class="st3" width="22.9" height="22.9"/>
<rect x="-192.82" y="439.43" class="st4" width="22.9" height="22.9"/>
<g>
	<g>
		<rect x="512.78" y="614.87" class="st2" width="79.96" height="125.48"/>
	</g>
	<g>
		<rect x="653.03" y="536.71" class="st2" width="80.01" height="198.22"/>
	</g>
	<g>
		<rect x="793.1" y="366.06" class="st2" width="80.18" height="368.86"/>
	</g>
</g>
<g>
	<g>
		<polygon class="st1" points="1036.21,150 43.4,150 43.4,230.05 74.44,230.05 74.44,733.21 134.47,733.21 134.47,230.05 
			935.8,230.05 935.8,826.55 628.23,826.55 628.23,886.6 995.87,886.6 995.87,230.05 1036.21,230.05 		"/>
	</g>
	<g>
		<path class="st1" d="M486.89,771.65c0,0-27.2-2.6-63.62-4.65c-2.27,111.36-20.55,182.65-58.36,201.55V850.44
			c8.63-1.17,15.48-8.26,15.48-17.22v-17.63c0-9.82-8.02-17.73-17.8-17.73h-38.81c-9.85,0-17.72,7.91-17.72,17.73v17.63
			c0,8.96,6.7,16.05,15.33,17.22v118.12c-37.88-18.91-56.11-90.2-58.38-201.55c-36.28,2.05-63.55,4.65-63.55,4.65
			c-40.32,0-72.99,32.74-72.99,73.07v92.51c0,40.39,113.26,58.46,219.05,58.46c106.02,0,214.37-18.07,214.37-58.46v-92.51
			C559.9,804.39,527.17,771.65,486.89,771.65z"/>
	</g>
	<g>
		<path class="st1" d="M474.58,613.43c0-86.93-58.94-157.62-131.39-157.62c-72.48,0-131.49,70.7-131.49,157.62
			c0,89.92,79.71,157.56,131.49,157.56C394.92,770.99,474.58,703.35,474.58,613.43z M240.91,613.43c0-12.25,1.46-24.06,4.05-35.24
			c3.44-5.7,7.22-11.41,10.75-16.35c10.41-14.36,18.97-28.7,40.34,0c20.06,26.92,95.46,41.99,149.07,43.77
			c0.17,2.55,0.29,5.16,0.29,7.81c0,69.58-62.75,128.35-102.21,128.35C303.68,741.78,240.91,683.02,240.91,613.43z"/>
	</g>
</g>
<g>
	<g>
		<rect x="512.78" y="1906.49" class="st2" width="79.96" height="125.48"/>
	</g>
	<g>
		<rect x="653.03" y="1828.32" class="st2" width="80.01" height="198.22"/>
	</g>
	<g>
		<rect x="793.1" y="1657.68" class="st2" width="80.18" height="368.86"/>
	</g>
</g>
<g>
	<g>
		<polygon class="st3" points="1036.21,1441.62 43.4,1441.62 43.4,1521.67 74.44,1521.67 74.44,2024.83 134.47,2024.83 
			134.47,1521.67 935.8,1521.67 935.8,2118.17 628.23,2118.17 628.23,2178.22 995.87,2178.22 995.87,1521.67 1036.21,1521.67 		"/>
	</g>
	<g>
		<path class="st3" d="M486.89,2063.27c0,0-27.2-2.6-63.62-4.65c-2.27,111.36-20.55,182.65-58.36,201.55v-118.12
			c8.63-1.17,15.48-8.26,15.48-17.22v-17.63c0-9.82-8.02-17.73-17.8-17.73h-38.81c-9.85,0-17.72,7.91-17.72,17.73v17.63
			c0,8.96,6.7,16.05,15.33,17.22v118.12c-37.88-18.91-56.11-90.2-58.38-201.55c-36.28,2.05-63.55,4.65-63.55,4.65
			c-40.32,0-72.99,32.74-72.99,73.07v92.51c0,40.39,113.26,58.46,219.05,58.46c106.02,0,214.37-18.07,214.37-58.46v-92.51
			C559.9,2096.01,527.17,2063.27,486.89,2063.27z"/>
	</g>
	<g>
		<path class="st3" d="M474.58,1905.05c0-86.93-58.94-157.62-131.39-157.62c-72.48,0-131.49,70.7-131.49,157.62
			c0,89.92,79.71,157.56,131.49,157.56C394.92,2062.61,474.58,1994.97,474.58,1905.05z M240.91,1905.05
			c0-12.25,1.46-24.06,4.05-35.24c3.44-5.7,7.22-11.41,10.75-16.35c10.41-14.36,18.97-28.7,40.34,0
			c20.06,26.92,95.46,41.99,149.07,43.77c0.17,2.55,0.29,5.16,0.29,7.81c0,69.58-62.75,128.35-102.21,128.35
			C303.68,2033.4,240.91,1974.63,240.91,1905.05z"/>
	</g>
</g>
<g>
	<g>
		<rect x="512.78" y="3088.18" class="st2" width="79.96" height="125.48"/>
	</g>
	<g>
		<rect x="653.03" y="3010.02" class="st2" width="80.01" height="198.22"/>
	</g>
	<g>
		<rect x="793.1" y="2839.37" class="st2" width="80.18" height="368.86"/>
	</g>
</g>
<g>
	<g>
		<polygon class="st4" points="1036.21,2623.31 43.4,2623.31 43.4,2703.36 74.44,2703.36 74.44,3206.52 134.47,3206.52 
			134.47,2703.36 935.8,2703.36 935.8,3299.86 628.23,3299.86 628.23,3359.91 995.87,3359.91 995.87,2703.36 1036.21,2703.36 		"/>
	</g>
	<g>
		<path class="st4" d="M486.89,3244.96c0,0-27.2-2.6-63.62-4.65c-2.27,111.36-20.55,182.65-58.36,201.55v-118.12
			c8.63-1.17,15.48-8.26,15.48-17.22v-17.63c0-9.82-8.02-17.73-17.8-17.73h-38.81c-9.85,0-17.72,7.91-17.72,17.73v17.63
			c0,8.96,6.7,16.05,15.33,17.22v118.12c-37.88-18.91-56.11-90.2-58.38-201.55c-36.28,2.05-63.55,4.65-63.55,4.65
			c-40.32,0-72.99,32.74-72.99,73.07v92.51c0,40.39,113.26,58.46,219.05,58.46c106.02,0,214.37-18.07,214.37-58.46v-92.51
			C559.9,3277.7,527.17,3244.96,486.89,3244.96z"/>
	</g>
	<g>
		<path class="st4" d="M474.58,3086.74c0-86.93-58.94-157.62-131.39-157.62c-72.48,0-131.49,70.7-131.49,157.62
			c0,89.92,79.71,157.56,131.49,157.56C394.92,3244.3,474.58,3176.66,474.58,3086.74z M240.91,3086.74
			c0-12.25,1.46-24.06,4.05-35.24c3.44-5.7,7.22-11.41,10.75-16.35c10.41-14.36,18.97-28.7,40.34,0
			c20.06,26.92,95.46,41.99,149.07,43.77c0.17,2.55,0.29,5.16,0.29,7.81c0,69.58-62.75,128.35-102.21,128.35
			C303.68,3215.09,240.91,3156.33,240.91,3086.74z"/>
	</g>
</g>
</svg>
