<?xml version="1.0" encoding="utf-8"?>
<!-- Generator: Adobe Illustrator 23.0.4, SVG Export Plug-In . SVG Version: 6.00 Build 0)  -->
<svg version="1.1" id="Layer_1" xmlns="http://www.w3.org/2000/svg" xmlns:xlink="http://www.w3.org/1999/xlink" x="0px" y="0px"
	 viewBox="0 0 1080 1080" style="enable-background:new 0 0 1080 1080;" xml:space="preserve">
<style type="text/css">
	.st0{clip-path:url(#SVGID_2_);}
	.st1{fill:#ED771A;}
	.st2{fill:#428DCB;}
	.st3{fill:#084366;}
	.st4{fill:#339937;}
</style>
<g>
	<defs>
		<rect id="SVGID_1_" x="-311" y="324" width="65" height="59"/>
	</defs>
	<clipPath id="SVGID_2_">
		<use xlink:href="#SVGID_1_"  style="overflow:visible;"/>
	</clipPath>
	<g class="st0">
		<defs>
			<rect id="SVGID_3_" x="-311" y="324" width="65" height="59"/>
		</defs>
		<clipPath id="SVGID_4_">
			<use xlink:href="#SVGID_3_"  style="overflow:visible;"/>
		</clipPath>
		<g style="clip-path:url(#SVGID_4_);">
			
				<image style="overflow:visible;" width="65" height="59" xlink:href="BCC8A012CCBDC467.png"  transform="matrix(1 0 0 1 -311 324)">
			</image>
		</g>
	</g>
</g>
<rect x="-192.82" y="382.62" class="st1" width="22.9" height="22.9"/>
<rect x="-192.82" y="353.56" class="st2" width="22.9" height="22.9"/>
<rect x="-192.82" y="411.24" class="st3" width="22.9" height="22.9"/>
<rect x="-192.82" y="439.43" class="st4" width="22.9" height="22.9"/>
<g>
	<path class="st2" d="M809.64-525.78l-66.33-288.39H543.39H343.47l-66.26,288.39c0,0,162.45-6.65,162.45,129.27h103.73h103.78
		C647.17-532.43,809.64-525.78,809.64-525.78z"/>
</g>
<g>
	<g>
		<path class="st1" d="M694.95-865.86v-101.83c0,0-16.21-34.68-81.73-51.87c-10.74,22.22-33.18,67.29-46.61,83.6c0,0,0-6.01,0-15.91
			c0-9.8-7.61-21.92-7.61-28.53c0-6.55,8.18-8.18,8.18-16.35c0-8.28-4.56-8.28-17.86-8.28c-1.16,0-4.83,0-5.99,0
			c-13.28,0-17.86,0-17.86,8.28c0,8.18,8.2,9.8,8.2,16.35c0,6.6-7.66,18.72-7.66,28.53c0,9.9,0,15.91,0,15.91
			c-13.65-16.55-36.65-63.16-47.1-84.93c-68.28,16.7-87.07,53.21-87.07,53.21v101.83h151.49H694.95z"/>
	</g>
	<g>
		<path class="st1" d="M473.41-1093.7c13.89,41.09,42.27,74.83,69.93,74.83c27.66,0,55.91-33.65,69.93-74.49h0.2
			c9.73,0,18.6-47.25,8.74-47.25l-0.1,0.05c0-1.33,0.1-2.66,0.1-3.99c0-59.61-40.13-90.5-78.87-90.5c-38.7,0-78.82,30.89-78.82,90.5
			c0,1.48,0.1,2.86,0.1,4.34C456.12-1138.53,463.51-1095.28,473.41-1093.7z"/>
	</g>
	<g>
		<path class="st1" d="M118.04-771.12c33.23,13.25,106.09-2.02,106.09-55.72s-6.6-156.46-91.11-156.46
			c-84.59,0-91.21,81.88-91.21,100.74C41.81-827.48,84.91-784.32,118.04-771.12z"/>
	</g>
	<g>
		<path class="st1" d="M209.25-476.08c0,0,31.43-79.51,31.43-152.47S147.9-731.37,108.06-731.37c-39.71,0-66.26,39.86-66.26,89.52
			c0,49.76,0,245.34,0,245.34h334.8C376.61-456.22,343.47-476.08,209.25-476.08z"/>
	</g>
	<g>
		<path class="st1" d="M968.74-771.81c33.11-13.3,76.26-56.36,76.26-111.43c0-18.82-6.63-100.7-91.21-100.7
			c-84.51,0-91.14,102.77-91.14,156.41C862.65-773.78,935.58-758.56,968.74-771.81z"/>
	</g>
	<g>
		<path class="st1" d="M978.72-732c-39.76,0-132.64,29.8-132.64,102.71c0,72.96,31.53,152.57,31.53,152.57
			c-134.29,0-167.45,19.85-167.45,79.56H1045c0,0,0-195.63,0-245.39C1045-692.25,1018.42-732,978.72-732z"/>
	</g>
</g>
<g>
	<path class="st2" d="M809.64,784.9l-66.33-288.39H543.39H343.47L277.22,784.9c0,0,162.45-6.65,162.45,129.27h103.73h103.78
		C647.17,778.25,809.64,784.9,809.64,784.9z"/>
</g>
<g>
	<g>
		<path class="st3" d="M694.95,444.83V343c0,0-16.21-34.68-81.73-51.87c-10.74,22.22-33.18,67.29-46.61,83.6c0,0,0-6.01,0-15.91
			c0-9.8-7.61-21.92-7.61-28.53c0-6.55,8.18-8.18,8.18-16.35c0-8.28-4.56-8.28-17.86-8.28c-1.16,0-4.83,0-5.99,0
			c-13.28,0-17.86,0-17.86,8.28c0,8.18,8.2,9.8,8.2,16.35c0,6.6-7.66,18.72-7.66,28.53c0,9.9,0,15.91,0,15.91
			c-13.65-16.55-36.65-63.16-47.1-84.93C410.65,306.5,391.85,343,391.85,343v101.83h151.49H694.95z"/>
	</g>
	<g>
		<path class="st3" d="M473.41,216.98c13.89,41.09,42.27,74.83,69.93,74.83c27.66,0,55.91-33.65,69.93-74.49h0.2
			c9.73,0,18.6-47.25,8.74-47.25l-0.1,0.05c0-1.33,0.1-2.66,0.1-3.99c0-59.61-40.13-90.5-78.87-90.5c-38.7,0-78.82,30.89-78.82,90.5
			c0,1.48,0.1,2.86,0.1,4.34C456.12,172.15,463.51,215.41,473.41,216.98z"/>
	</g>
	<g>
		<path class="st3" d="M118.04,539.57c33.23,13.25,106.09-2.02,106.09-55.72s-6.6-156.46-91.11-156.46
			c-84.59,0-91.21,81.88-91.21,100.74C41.81,483.21,84.91,526.36,118.04,539.57z"/>
	</g>
	<g>
		<path class="st3" d="M209.25,834.61c0,0,31.43-79.51,31.43-152.47S147.9,579.32,108.06,579.32c-39.71,0-66.26,39.86-66.26,89.52
			c0,49.76,0,245.34,0,245.34h334.8C376.61,854.47,343.47,834.61,209.25,834.61z"/>
	</g>
	<g>
		<path class="st3" d="M968.74,538.88c33.11-13.3,76.26-56.36,76.26-111.43c0-18.82-6.63-100.7-91.21-100.7
			c-84.51,0-91.14,102.77-91.14,156.41C862.65,536.91,935.58,552.13,968.74,538.88z"/>
	</g>
	<g>
		<path class="st3" d="M978.72,578.68c-39.76,0-132.64,29.8-132.64,102.71c0,72.96,31.53,152.57,31.53,152.57
			c-134.29,0-167.45,19.85-167.45,79.56H1045c0,0,0-195.63,0-245.39C1045,618.44,1018.42,578.68,978.72,578.68z"/>
	</g>
</g>
<g>
	<path class="st2" d="M809.64,2006.73l-66.33-288.39H543.39H343.47l-66.26,288.39c0,0,162.45-6.65,162.45,129.27h103.73h103.78
		C647.17,2000.08,809.64,2006.73,809.64,2006.73z"/>
</g>
<g>
	<g>
		<path class="st4" d="M694.95,1666.66v-101.83c0,0-16.21-34.68-81.73-51.87c-10.74,22.22-33.18,67.29-46.61,83.6
			c0,0,0-6.01,0-15.91c0-9.8-7.61-21.92-7.61-28.53c0-6.55,8.18-8.18,8.18-16.35c0-8.28-4.56-8.28-17.86-8.28c-1.16,0-4.83,0-5.99,0
			c-13.28,0-17.86,0-17.86,8.28c0,8.18,8.2,9.8,8.2,16.35c0,6.6-7.66,18.72-7.66,28.53c0,9.9,0,15.91,0,15.91
			c-13.65-16.55-36.65-63.16-47.1-84.93c-68.28,16.7-87.07,53.21-87.07,53.21v101.83h151.49H694.95z"/>
	</g>
	<g>
		<path class="st4" d="M473.41,1438.81c13.89,41.09,42.27,74.83,69.93,74.83c27.66,0,55.91-33.65,69.93-74.49h0.2
			c9.73,0,18.6-47.25,8.74-47.25l-0.1,0.05c0-1.33,0.1-2.66,0.1-3.99c0-59.61-40.13-90.5-78.87-90.5c-38.7,0-78.82,30.89-78.82,90.5
			c0,1.48,0.1,2.86,0.1,4.34C456.12,1393.98,463.51,1437.23,473.41,1438.81z"/>
	</g>
	<g>
		<path class="st4" d="M118.04,1761.4c33.23,13.25,106.09-2.02,106.09-55.72c0-53.7-6.6-156.46-91.11-156.46
			c-84.59,0-91.21,81.88-91.21,100.74C41.81,1705.04,84.91,1748.19,118.04,1761.4z"/>
	</g>
	<g>
		<path class="st4" d="M209.25,2056.44c0,0,31.43-79.51,31.43-152.47s-92.79-102.82-132.62-102.82c-39.71,0-66.26,39.86-66.26,89.52
			c0,49.76,0,245.34,0,245.34h334.8C376.61,2076.29,343.47,2056.44,209.25,2056.44z"/>
	</g>
	<g>
		<path class="st4" d="M968.74,1760.7c33.11-13.3,76.26-56.36,76.26-111.43c0-18.82-6.63-100.7-91.21-100.7
			c-84.51,0-91.14,102.77-91.14,156.41C862.65,1758.73,935.58,1773.96,968.74,1760.7z"/>
	</g>
	<g>
		<path class="st4" d="M978.72,1800.51c-39.76,0-132.64,29.8-132.64,102.71c0,72.96,31.53,152.57,31.53,152.57
			c-134.29,0-167.45,19.85-167.45,79.56H1045c0,0,0-195.63,0-245.39C1045,1840.27,1018.42,1800.51,978.72,1800.51z"/>
	</g>
</g>
</svg>
